<svg width="423" height="315" viewBox="0 0 423 315" fill="none" xmlns="http://www.w3.org/2000/svg">
<g clip-path="url(#clip0_12_958)">
<path d="M389.695 76.572C341.686 9.595 240.267 -17.5738 140.526 11.6876C87.7956 27.1573 36.9538 58.153 11.7579 118.171C-33.2826 225.459 61.2856 259.724 123.123 270.645C153.024 275.926 181.186 284.796 206.92 296.873C253.219 318.601 335.171 337.854 396.968 247.348C441.759 181.749 421.674 121.185 389.695 76.572Z" fill="#F2F2F2"/>
<path d="M111.351 89.8232C111.217 88.7587 110.945 87.7162 110.543 86.7219C110.492 86.5339 110.402 86.3586 110.279 86.2073C110.157 86.0559 110.004 85.9318 109.831 85.8429C109.6 85.7826 109.357 85.7799 109.125 85.835L105.498 86.3913C105.195 86.4052 104.904 86.5184 104.671 86.7136C104.199 87.2116 104.664 88.0135 104.649 88.7005C104.633 89.4731 103.948 90.1002 103.206 90.3076C102.448 90.4611 101.666 90.4514 100.912 90.2791L95.8415 89.4891C97.3349 89.0111 98.6642 88.1218 99.6776 86.9226C100.345 86.1301 100.7 84.6505 99.7355 84.2752C99.449 84.1963 99.1502 84.1723 98.8548 84.2043C96.5573 84.2222 94.7494 82.2991 92.5986 81.4891C91.2221 81.0043 89.7278 80.9682 88.3296 81.3861C86.9313 81.804 85.7006 82.6544 84.8136 83.8158L87.5149 83.9464C87.769 83.9323 88.021 83.9997 88.2345 84.1388C88.8265 84.6264 88.0904 85.563 88.1738 86.3266C88.2822 87.3187 89.5961 87.5305 90.5865 87.6308C91.5769 87.7311 92.8334 88.5378 92.357 89.4141C87.379 91.1331 82.3134 86.0539 77.0854 86.6791C75.7623 86.8373 74.5128 87.3585 73.221 87.6861C65.3295 89.6879 57.1711 84.3471 49.1095 85.4782C47.3174 85.7845 45.556 86.2502 43.8462 86.8698C42.749 87.231 41.6046 87.6213 40.8073 88.4589C40.0101 89.2965 39.7067 90.729 40.462 91.6049C38.3803 91.7767 36.2848 91.577 34.2727 91.015C34.8168 91.3183 35.2695 91.7627 35.5831 92.3018C35.8968 92.8409 36.06 93.4546 36.0554 94.0787C32.8052 94.6101 29.6411 95.5773 26.6481 96.9544C27.2067 97.8857 27.8591 98.7571 28.5952 99.5548L24.4805 102.205C25.8706 102.556 26.5893 104.456 25.7809 105.643C27.2223 105.001 28.1157 103.337 29.657 103C30.6668 102.779 31.6943 103.194 32.6523 103.583C33.6102 103.972 34.6631 104.349 35.6547 104.057C36.6464 103.765 37.3779 102.476 36.7477 101.654C40.9864 100.415 45.367 99.7284 49.7809 99.613C50.1214 99.5702 50.4668 99.6359 50.768 99.8008C51.3425 100.2 51.1914 101.064 51.1604 101.764C51.1295 102.464 51.674 103.385 52.2984 103.069C51.5638 103.708 52.1918 104.91 52.8966 105.582C53.6014 106.253 54.4508 107.18 54.0193 108.054C53.9067 108.282 53.7157 108.464 53.6074 108.694C53.2875 109.373 53.7953 110.165 54.3943 110.616C54.9933 111.067 55.727 111.382 56.1431 112.006C56.5592 112.631 56.3702 113.724 55.6262 113.811L53.5114 111.119C52.7889 111.87 52.2936 112.812 52.0829 113.833C54.3254 115.671 54.6627 119.412 52.7853 121.623C51.8259 122.753 50.4615 123.44 49.2707 124.321C48.0799 125.203 46.9781 126.458 46.9811 127.942C46.9862 130.506 46.7773 132.887 47.7356 135.264C49.5026 139.647 51.5427 143.914 53.8438 148.04C54.448 149.124 55.229 150.311 56.4531 150.498C54.9061 146.722 53.5134 142.887 52.2751 138.994C53.0816 138.997 54.0137 139.061 54.4865 139.717C54.878 140.259 54.7939 140.996 54.9155 141.655C55.0702 142.293 55.3283 142.901 55.6793 143.455L63.067 156.648C63.6794 157.742 64.3819 158.916 65.5524 159.359C66.3007 159.642 67.1665 159.588 67.8553 159.996C68.3952 160.316 68.7589 160.883 69.3093 161.184C70.8655 162.035 73.0297 160.403 74.484 161.419C74.8999 161.709 75.1644 162.171 75.5476 162.504C76.8908 163.67 79.0943 162.89 80.6449 163.76C81.6443 164.32 82.1622 165.442 82.6952 166.458C84.0304 169.003 86.1908 171.497 89.0522 171.7C89.9511 171.763 90.8692 171.592 91.7478 171.793C92.6264 171.993 93.4913 172.762 93.3503 173.654C93.1085 175.184 93.8623 176.859 93.6599 178.394C93.2911 181.191 89.3342 182.42 88.9943 185.22C88.9199 185.833 89.0364 186.466 88.8908 187.066C88.7123 187.802 88.1613 188.401 87.9655 189.132C87.5944 190.517 88.5846 191.896 89.6723 192.828C90.76 193.761 92.0575 194.564 92.6522 195.869C93.2808 197.248 92.972 198.856 93.1764 200.359C93.6227 203.639 96.4485 206.07 99.3567 207.638C100.243 208.116 101.194 208.578 101.768 209.407C102.516 210.489 102.442 211.914 102.692 213.207C103.304 216.372 105.961 218.98 106.037 222.203C106.09 224.494 104.82 226.572 104.061 228.734C103.35 230.805 103.093 233.005 103.307 235.185C103.521 237.365 104.201 239.473 105.302 241.365C105.87 242.326 106.548 243.232 106.95 244.273C107.667 246.132 107.434 248.245 108.095 250.125C108.968 252.61 111.368 254.662 111.139 257.287C112.228 259.555 114.634 260.67 117.054 261.345L121.39 262.555C122.22 262.787 123.088 263.021 123.933 262.853C124.779 262.685 125.586 261.981 125.564 261.118C123.437 260.637 121.243 260.126 119.49 258.826C117.737 257.527 116.536 255.214 117.201 253.133C117.51 252.168 118.166 251.053 117.542 250.256C117.185 249.8 116.532 249.68 116.129 249.264C115.501 248.614 115.716 247.522 116.168 246.739C116.62 245.956 117.273 245.255 117.455 244.369C117.547 243.873 117.486 243.361 117.279 242.901C117.072 242.441 116.73 242.056 116.299 241.796C117.103 241.492 117.834 241.022 118.445 240.416C119.01 239.77 119.27 238.773 118.826 238.039C120.145 238.206 121.701 238.288 122.567 237.277C123.258 236.47 123.211 235.263 122.938 234.235C122.664 233.206 122.203 232.208 122.188 231.144C125.23 231.288 128.278 231.185 131.303 230.834C130.866 229.357 129.872 228.109 128.532 227.355C129.902 227.122 131.15 225.478 131.583 224.154C132.016 222.831 131.905 221.389 131.638 220.022C131.535 219.67 131.521 219.298 131.597 218.939C131.751 218.447 132.234 218.146 132.681 217.889L139.481 213.973C139.886 213.77 140.254 213.497 140.568 213.169C141.28 212.33 141.175 211.063 140.81 210.024C140.445 208.985 139.861 208.007 139.72 206.914C139.3 203.646 142.79 201.301 143.968 198.225C144.43 197.018 144.524 195.705 144.613 194.415C144.709 193.03 144.717 191.42 143.655 190.528C142.638 189.672 141.049 189.863 139.984 189.066C139.008 188.337 138.672 186.919 137.606 186.329C136.637 185.794 135.424 186.134 134.347 185.883C132.451 185.439 131.258 183.249 129.321 183.046C128.229 182.931 126.993 183.467 126.097 182.829C125.308 182.267 125.277 181.137 125.126 180.179C124.863 178.689 124.151 177.316 123.086 176.244C122.02 175.173 120.653 174.454 119.168 174.186C118.041 174.004 116.815 174.073 115.857 173.453C114.887 172.824 114.442 171.648 113.679 170.778C112.451 169.375 110.516 168.877 108.704 168.449L101.332 166.712C100.023 166.404 98.3366 166.24 97.6344 167.389C97.4265 167.827 97.2793 168.291 97.197 168.769C96.9338 169.632 96.4043 170.391 95.6844 170.934C94.9645 171.477 94.0914 171.777 93.1905 171.792C92.5727 170.735 91.5717 169.959 90.3965 169.625C89.649 169.416 88.8489 169.392 88.1359 169.085C87.7477 168.895 87.4021 168.628 87.1205 168.299C86.8389 167.971 86.6272 167.588 86.4982 167.175C86.3692 166.761 86.3257 166.326 86.3704 165.895C86.4151 165.464 86.547 165.047 86.7581 164.669C87.1831 163.91 87.3473 163.033 87.2252 162.171C87.1031 161.31 86.7016 160.512 86.0826 159.902C84.829 158.774 83.0155 158.501 81.3345 158.614C80.8942 157.651 81.6304 156.565 82.4236 155.865C83.2169 155.165 84.1802 154.477 84.3529 153.432C84.6247 151.788 82.5323 150.539 80.9436 151.029C79.3549 151.519 78.3409 153.066 77.6706 154.591C77.286 155.466 76.959 156.388 76.3524 157.125C75.7458 157.863 74.7688 158.391 73.8448 158.155C72.5366 157.819 72.0314 156.261 71.7419 154.939C71.3534 153.165 70.9627 151.367 71.0441 149.552C71.1255 147.738 71.7356 145.875 73.0701 144.647C75.2447 142.646 78.5806 142.842 81.5154 143.161C80.822 142.378 80.9934 141.058 81.7353 140.321C82.1269 139.972 82.5975 139.724 83.1062 139.599C83.615 139.473 84.1465 139.474 84.6548 139.602C85.5391 139.786 86.3358 140.264 86.9165 140.957C87.7505 141.977 87.9877 143.353 88.618 144.51C89.2484 145.667 90.6659 146.654 91.826 146.033C92.8281 145.497 92.9872 144.104 92.7378 142.993C92.4884 141.882 91.9587 140.802 92.049 139.667C92.2214 137.501 94.461 136.197 96.4373 135.305C98.4136 134.413 100.677 133.213 100.99 131.063C101 130.642 101.08 130.226 101.224 129.83C101.443 129.481 101.748 129.194 102.109 128.996C107.877 125.175 113.741 121.307 120.333 119.218C120.676 119.11 120.717 119.23 121.066 119.145C121.555 118.862 121.231 118.078 120.762 117.762C120.293 117.446 119.666 117.204 119.547 116.65C119.46 116.243 119.699 115.843 119.761 115.432C119.914 114.42 118.707 113.486 117.769 113.89C117.24 113.187 118.287 112.37 119.135 112.136C121.679 111.434 124.291 111.007 126.925 110.86C127.229 110.812 127.541 110.865 127.812 111.012C128.254 111.319 128.198 112.024 127.884 112.462C127.571 112.901 127.083 113.176 126.692 113.548C126.265 113.965 125.96 114.491 125.812 115.07C125.663 115.649 125.675 116.257 125.848 116.829C127.223 117.531 128.719 118.253 130.242 118.006C131.765 117.759 133.118 116.043 132.402 114.672C131.735 113.396 129.732 113.108 129.387 111.709C128.984 110.072 131.296 108.615 130.776 107.011C130.547 106.308 129.849 105.895 129.313 105.388C128.68 104.766 128.25 103.966 128.078 103.095C127.906 102.223 128.002 101.32 128.352 100.503C127.479 100.657 126.582 100.599 125.736 100.334C124.89 100.068 124.12 99.6036 123.49 98.9782C122.327 97.8017 121.4 95.9458 119.748 95.9985C118.233 96.0468 116.928 97.8191 115.511 97.2784C115.162 97.1453 114.795 96.8746 114.457 97.0332C114.347 97.1053 114.254 97.2016 114.186 97.3149C114.117 97.4283 114.076 97.5556 114.064 97.6874C113.704 99.4132 114.323 101.38 113.385 102.871C112.364 104.494 110.003 104.719 108.765 106.182C108.093 106.977 107.833 108.047 107.215 108.885C106.598 109.722 105.287 110.255 104.546 109.525C104.91 108.774 105.009 107.922 104.828 107.107C104.646 106.292 104.194 105.563 103.546 105.039C102.858 104.589 102.116 104.227 101.338 103.963C100.469 103.594 99.6419 103.132 98.8717 102.584C98.4859 102.351 98.1724 102.015 97.9662 101.613C97.8032 101.11 97.8251 100.565 98.0282 100.077C98.404 98.9969 99.067 98.0401 99.9456 97.31C100.824 96.58 101.885 96.1044 103.014 95.9346C104 95.8 105.149 95.8474 105.802 95.0936C106.147 94.6948 106.329 94.0918 106.83 93.9298C107.151 93.8651 107.484 93.9063 107.78 94.047L111.463 95.3467C111.874 95.5327 112.326 95.6077 112.775 95.5643C112.998 95.5342 113.201 95.4209 113.343 95.2471C113.486 95.0733 113.558 94.8518 113.544 94.627C113.427 94.0138 112.486 93.7196 112.571 93.101C112.619 92.9006 112.727 92.7194 112.879 92.5815C114.209 91.1631 115.834 90.0569 117.64 89.3421C119.445 88.6273 121.386 88.3215 123.324 88.4467C123.789 89.2122 123.053 90.1186 122.442 90.7721C121.83 91.4255 121.338 92.5931 122.078 93.0961C122.381 93.2512 122.718 93.3273 123.059 93.3175C123.965 93.4405 124.847 93.7085 125.669 94.1112C126.942 94.6665 128.19 95.2741 129.414 95.934C129.306 95.1249 129.203 94.2726 129.509 93.5161C129.815 92.7597 130.684 92.1663 131.443 92.4609C132.175 92.7449 132.55 93.7163 133.33 93.8053C134.37 93.924 134.78 92.3837 134.346 91.429C133.911 90.4742 133.051 89.6748 132.98 88.6279C132.931 87.9217 133.199 87.0457 132.637 86.618C132.436 86.4896 132.209 86.4097 131.973 86.3846L117.922 83.7924C117.087 83.6385 115.882 83.7565 115.845 84.6062C115.824 85.0805 116.247 85.5498 116.059 85.9859C115.86 86.4513 115.203 86.4088 114.725 86.5734C113.984 86.8288 113.612 87.7118 113.683 88.4947C113.813 89.2727 114.114 90.0121 114.563 90.66C113.649 90.2768 112.265 90.2063 111.351 89.8232Z" fill="#3F3D56"/>
<path d="M100.14 77.8653C99.2537 77.5714 98.299 77.5577 97.4049 77.8261C96.5108 78.0945 95.7207 78.6321 95.1417 79.366C94.9104 79.6713 94.7161 80.0923 94.9097 80.423C95.1874 80.8971 95.895 80.7099 96.4167 80.5403C97.1834 80.2657 98.0179 80.2457 98.7969 80.4834C99.2867 80.652 99.7249 80.9499 100.217 81.1122C100.456 81.2126 100.719 81.2458 100.975 81.2081C101.232 81.1705 101.474 81.0635 101.675 80.8986C102.013 80.5533 102.034 80.0166 102.034 79.5331C102.058 79.3713 102.045 79.2063 101.997 79.0502C101.948 78.8941 101.866 78.7507 101.755 78.6306C101.558 78.5162 101.337 78.4506 101.11 78.4391C100.601 78.3447 100.141 78.0751 99.8085 77.6769" fill="#3F3D56"/>
<path d="M105.207 76.4511C105.008 76.4403 104.811 76.4808 104.633 76.5687C104.454 76.6566 104.302 76.789 104.189 76.9532C104.077 77.1173 104.009 77.3077 103.991 77.506C103.973 77.7043 104.007 77.9038 104.088 78.0854C104.697 78.2519 105.333 78.2935 105.959 78.2077C106.27 78.1591 106.561 78.0191 106.794 77.8052C107.026 77.5914 107.191 77.3132 107.266 77.0059C106.53 77.1402 105.77 76.9948 105.135 76.5979" fill="#3F3D56"/>
<path d="M122.205 74.0892C120.548 74.4425 118.938 74.9908 117.409 75.7228C118.13 76.0006 118.742 76.5032 119.157 77.1565C119.571 77.8098 119.765 78.5793 119.71 79.3516C119.646 79.6481 119.653 79.9559 119.732 80.2489C119.908 80.677 120.419 80.8377 120.868 80.9476C121.674 81.1936 122.516 81.3013 123.358 81.2662C123.779 81.2441 124.188 81.1171 124.548 80.8966C124.908 80.6761 125.208 80.3691 125.419 80.0034C125.541 79.6563 125.685 79.317 125.848 78.9875C126.924 77.345 130.119 79.331 131.274 77.7436C131.681 77.1844 131.644 76.3426 132.174 75.8995C132.449 75.7064 132.767 75.5848 133.1 75.5455C135.422 75.0829 137.768 74.7479 140.127 74.5421C141.245 74.4445 142.702 74.0421 142.711 72.9173C138.501 72.0884 134.136 72.6771 130.294 74.5921C128.909 75.2872 127.078 76.7493 125.745 75.8278C125.246 75.4828 125.271 74.5537 124.583 74.1657C123.881 73.7691 122.951 73.9304 122.205 74.0892Z" fill="#3F3D56"/>
<path d="M135.974 76.6706L137.95 77.0513C137.586 77.0352 137.223 77.097 136.885 77.2326C136.547 77.3683 136.242 77.5746 135.99 77.838C135.737 78.1013 135.544 78.4155 135.423 78.7597C135.301 79.1038 135.254 79.47 135.285 79.8338C137.136 80.4536 139.154 79.8505 141.103 79.9329C143.053 80.0152 145.321 81.4114 144.988 83.339C144.888 83.9219 144.552 84.5043 144.727 85.0693C144.849 85.4654 145.197 85.7463 145.394 86.1111C145.804 86.8711 145.476 87.8324 144.959 88.5233C144.441 89.2142 143.746 89.7654 143.292 90.4996C142.162 92.3257 142.804 94.6865 143.477 96.7266C143.672 97.4974 144.031 98.2167 144.53 98.8346C145.527 99.8972 147.151 99.9896 148.606 100.011C149.665 100.026 150.878 99.974 151.548 99.1514C152.422 98.0776 151.811 96.4022 152.386 95.1419C152.909 93.9973 154.241 93.5062 155.448 93.158C157.658 92.5199 159.911 91.9775 162.001 91.0138C164.596 89.8171 167.022 87.9521 169.874 87.7981C170.674 87.7548 171.494 87.8495 172.265 87.6297C173.036 87.4099 173.768 86.7418 173.71 85.9405C173.66 85.2558 173.082 84.7531 172.631 84.237C172.179 83.7208 171.825 82.9272 172.24 82.3811L179.716 80.9811C179.186 79.5331 178.773 77.6261 179.991 76.6836C180.431 76.3435 181.019 76.2076 181.393 75.7965C182.031 75.0958 181.71 73.8888 180.974 73.2929C180.238 72.697 179.243 72.5587 178.3 72.4802C175.022 72.2072 171.724 72.3876 168.44 72.5681C162.019 72.9209 155.598 73.2738 149.177 73.6266C147.885 73.6976 146.393 73.5891 145.207 74.0312C144.203 74.4055 143.49 75.0925 142.342 75.3339C140.223 75.7795 137.891 75.4779 135.974 76.6706Z" fill="#3F3D56"/>
<path d="M171.38 92.332C171.178 92.3001 170.972 92.3469 170.805 92.4628C170.694 92.5854 170.627 92.7423 170.617 92.9075C170.49 93.637 170.642 94.3878 171.043 95.0096C171.247 95.3147 171.529 95.5594 171.86 95.7182C172.19 95.8771 172.557 95.9443 172.922 95.913C173.812 95.7993 174.468 95.0381 175.286 94.6667C176.547 94.0948 181.902 93.2032 178.198 91.1968C176.921 90.5054 176.096 91.1158 175.09 91.5711C173.945 92.1583 172.663 92.4213 171.38 92.332Z" fill="#3F3D56"/>
<path d="M203.826 75.5379C203.393 75.7151 203.031 76.0309 202.797 76.436C202.688 76.6416 202.663 76.8811 202.726 77.1049C202.79 77.3286 202.936 77.5195 203.136 77.638C203.297 77.6967 203.468 77.7239 203.64 77.7182L205.399 77.7709C206.146 77.7933 207.079 77.9528 207.28 78.6746C207.429 79.2106 207.096 79.8994 207.498 80.2824C207.671 80.4166 207.879 80.4978 208.096 80.5164C208.676 80.6656 209.281 80.6852 209.869 80.5737C211.148 80.2296 210.476 79.4466 210.879 78.7494C211.496 77.6826 211.389 78.3283 212.475 77.7169C213.278 77.2654 214.315 76.4464 213.645 75.2955C212.48 73.2943 205.544 74.6782 203.826 75.5379Z" fill="#3F3D56"/>
<path d="M238.54 74.5318L237.518 74.6684C235.215 74.9765 232.899 75.2874 230.681 75.9808C231.641 76.3614 232.649 76.6092 233.675 76.7174C234.241 76.7452 234.802 76.8252 235.353 76.9564C236.332 77.2488 237.32 78.0038 238.266 77.6171C238.853 77.3773 239.044 76.7647 239.531 76.44C239.866 76.2158 241.139 75.853 241.282 75.6267C242.432 73.7974 239.424 74.4135 238.54 74.5318Z" fill="#3F3D56"/>
<path d="M243.024 79.1852C241.66 79.9499 240.394 80.8792 239.255 81.9522C238.775 82.4044 238.285 82.9668 238.329 83.6256C238.387 84.5012 239.317 85.0091 240.123 85.3513L243.388 86.737C243.784 86.1774 243.421 85.4048 243.012 84.8549C242.603 84.3049 242.116 83.6686 242.297 83.0068C242.504 82.2515 243.422 81.9942 244.192 81.8641C245.447 81.6521 248.833 81.6691 248.426 79.6415C247.947 77.2523 244.284 78.4793 243.024 79.1852Z" fill="#3F3D56"/>
<path d="M242.367 214.389C242.056 215.291 242.027 216.354 242.565 217.141C243.168 218.025 244.375 218.354 245.42 218.13C246.46 217.853 247.387 217.255 248.071 216.422C248.696 215.723 249.21 214.933 249.595 214.077C250.133 212.745 250.512 211.353 250.725 209.932L251.739 204.596C251.966 203.404 251.957 199.748 249.771 200.939C249.173 201.264 247.791 203.833 247.165 204.562C246.037 205.875 245.887 207.149 245.294 208.74C244.55 210.732 243.055 212.393 242.367 214.389Z" fill="#3F3D56"/>
<path d="M357.835 241.693C357.12 241.413 356.425 241.082 355.758 240.702C355.088 242.547 354.732 244.492 354.705 246.456L359.6 243.679C360.336 243.261 361.171 242.681 361.155 241.833C361.161 241.728 361.14 241.623 361.092 241.53C361.045 241.436 360.973 241.358 360.884 241.302C360.775 241.258 360.657 241.244 360.541 241.261C359.815 241.322 359.153 241.68 358.469 241.929C357.784 242.178 356.983 242.31 356.355 241.94" fill="#3F3D56"/>
<path d="M383.657 243.342C383.12 243.489 382.595 243.677 382.087 243.907C380.964 244.48 380.2 245.568 379.189 246.323C378.222 247.045 377.057 247.442 375.914 247.827C375.578 248.125 375.732 248.725 376.097 248.987C376.49 249.211 376.94 249.312 377.39 249.278C378.578 249.305 379.829 249.316 380.869 248.741C381.455 248.36 382.004 247.923 382.507 247.438C383.723 246.42 385.184 245.749 386.63 245.1C387.156 244.901 387.643 244.61 388.067 244.239C388.975 243.342 389.039 241.957 387.729 241.652C386.671 241.405 384.665 243.015 383.657 243.342Z" fill="#3F3D56"/>
<path d="M395.067 235.87C395.126 235.253 395.044 234.63 394.827 234.049C394.611 233.468 394.266 232.944 393.817 232.516C393.804 233.751 393.767 235.067 393.074 236.089C392.58 236.817 391.806 237.309 391.265 238.002C390.724 238.695 390.483 239.794 391.118 240.403C391.524 240.712 392.018 240.883 392.527 240.889C393.791 241.038 395.253 241.122 396.139 240.207C396.622 239.707 396.858 238.968 397.447 238.6C397.667 238.508 397.863 238.367 398.021 238.189C398.265 237.8 397.878 237.289 397.442 237.149C397.007 237.009 396.527 237.075 396.089 236.942C395.651 236.809 395.25 236.316 395.474 235.916" fill="#3F3D56"/>
<path d="M374.789 190.576C374.126 190.737 373.439 190.778 372.762 190.696C371.638 190.488 370.762 189.639 369.855 188.942C367.696 187.294 365.072 186.375 362.36 186.317C359.893 186.27 357.403 186.94 354.98 186.473C355.138 187.355 355.892 188.018 356.696 188.411C357.5 188.805 358.387 189.003 359.195 189.388C360.488 190.012 361.515 191.082 362.085 192.403C362.345 193.011 362.509 193.674 362.903 194.206C363.708 195.292 365.235 195.531 366.583 195.442C368.34 195.326 370.174 194.819 371.809 195.476C373.059 195.978 373.954 197.075 374.998 197.928C376.042 198.781 377.512 199.414 378.711 198.799C377.466 198.394 376.382 197.602 375.618 196.537C374.854 195.471 374.45 194.189 374.464 192.877C375.64 192.985 379.026 192.943 378.844 190.94C378.689 189.243 375.798 190.393 374.789 190.576Z" fill="#3F3D56"/>
<path d="M359.408 204.386C359.617 203.238 360.759 202.225 360.403 201.114C360.157 200.345 359.268 199.966 358.464 199.947C357.659 199.928 356.869 200.168 356.064 200.191C355.54 200.163 355.015 200.171 354.493 200.213C352.896 200.476 351.911 202.155 350.406 202.751C349.491 203.114 348.463 203.045 347.511 203.296C345.35 203.865 343.983 205.912 342.473 207.562C340.033 210.217 336.853 212.076 333.347 212.898C332.119 213.183 330.798 213.365 329.822 214.165C328.528 215.225 328.21 217.04 327.922 218.689C327.128 223.244 325.913 227.714 324.294 232.043L329.424 232.7C330.4 232.825 331.41 232.947 332.35 232.657C333.033 232.399 333.68 232.054 334.275 231.63C336.56 230.208 339.117 229.282 341.781 228.913C343.125 228.728 344.533 228.695 345.794 229.195C347.055 229.696 348.136 230.831 348.242 232.187C348.787 232.016 349.368 231.998 349.923 232.133C350.478 232.269 350.986 232.553 351.392 232.955C352.195 233.775 352.722 234.828 352.896 235.964C353.031 236.668 353.166 237.511 353.818 237.806C354.349 238.047 354.959 237.788 355.54 237.741C357.512 237.583 359.149 239.889 361.088 239.492C363.167 239.066 363.677 235.944 365.706 235.319C366.871 234.96 368.505 235.396 369.063 234.31C369.555 233.352 368.574 232.247 368.675 231.175C368.799 229.855 370.353 229.294 371.55 228.731C375.679 226.789 377.638 221.218 375.637 217.109C374.452 214.675 372.12 212.759 371.689 210.084C371.358 208.027 372.167 205.628 370.858 204.008C370.192 203.184 369.065 202.729 368.669 201.746C368.42 201.128 368.52 200.425 368.386 199.772C368.252 199.118 367.683 198.434 367.039 198.604C365.17 199.096 364.574 204.884 363.573 206.29C362.052 208.428 358.929 207.02 359.408 204.386Z" fill="#3F3D56"/>
<path d="M324.861 192.763C324.222 192.583 323.525 192.406 322.913 192.663C322.301 192.92 321.943 193.82 322.435 194.267C326.277 194.117 330.143 193.968 333.953 194.491C338.343 195.094 342.687 196.587 347.096 196.148C344.578 195.403 342.017 194.808 339.429 194.364L335.113 193.538C333.955 193.295 332.785 193.113 331.608 192.995C329.146 192.791 327.282 193.443 324.861 192.763Z" fill="#3F3D56"/>
<path d="M328.708 179.346C328.389 179.319 327.994 179.296 327.829 179.571C327.671 179.834 327.851 180.181 327.767 180.476C327.651 180.878 327.125 180.981 326.711 180.926C326.297 180.871 325.849 180.74 325.482 180.94C325.295 181.068 325.156 181.252 325.083 181.466C325.01 181.68 325.009 181.912 325.079 182.127C325.229 182.553 325.471 182.941 325.789 183.262C326.332 183.948 326.95 184.57 327.633 185.116C328.953 186.093 330.743 186.564 331.574 187.983C331.692 188.258 331.872 188.501 332.101 188.693C332.5 188.947 333.021 188.754 333.451 188.557L334.958 187.867C335.229 187.769 335.472 187.603 335.662 187.386C336.007 186.918 335.795 186.252 335.506 185.748C335.217 185.243 334.847 184.721 334.909 184.142C335.02 183.111 336.343 182.716 336.887 181.834C337.435 180.944 337.078 179.798 337.141 178.754C337.215 177.534 337.98 175.946 336.749 175.034C335.703 174.259 334.703 174.975 333.952 175.831C332.368 177.635 331.619 179.59 328.708 179.346Z" fill="#3F3D56"/>
<path d="M337.856 161.108C338.37 162.095 339.443 162.685 340.004 163.646C340.612 164.689 340.543 166.036 341.203 167.046C341.88 168.083 343.242 168.634 343.621 169.813C344.036 171.1 343.095 172.665 343.845 173.79C343.985 173.974 344.161 174.127 344.363 174.238C344.565 174.35 344.787 174.419 345.017 174.44C345.247 174.461 345.478 174.435 345.697 174.361C345.916 174.288 346.117 174.17 346.288 174.015C346.604 173.67 346.773 173.215 346.759 172.747C346.745 172.279 346.549 171.834 346.214 171.509C345.77 171.103 345.133 170.928 344.762 170.454C344.569 170.18 344.441 169.867 344.386 169.536C344.184 168.583 344.216 167.595 344.48 166.657C344.58 166.419 344.605 166.156 344.553 165.904C344.386 165.417 343.729 165.383 343.268 165.157C342.222 164.645 342.247 163.164 342.43 162.011C342.308 162.779 339.581 161.473 339.295 161.038C338.728 160.175 339.036 158.508 338.924 157.554C337.699 158.145 337.227 159.9 337.856 161.108Z" fill="#3F3D56"/>
<path d="M310.376 176.304C309.873 175.739 309.114 175.147 308.439 175.488C307.925 175.748 307.783 176.462 307.985 177.004C308.231 177.53 308.609 177.982 309.083 178.317C310.49 179.48 312.004 180.529 313.231 181.881C315.427 184.301 316.591 187.565 318.979 189.794C319.459 190.311 320.095 190.656 320.789 190.776C321.484 190.841 322.266 190.394 322.346 189.698C322.412 189.125 322.013 188.612 321.623 188.187C320.696 187.175 319.68 186.244 318.804 185.187C318.4 184.781 318.145 184.249 318.084 183.678C318.079 183.109 318.597 182.513 319.147 182.654C318.478 182.483 317.982 181.365 317 181.155C316.179 180.98 315.981 181.489 315.004 181.069C313.142 180.268 311.681 177.767 310.376 176.304Z" fill="#3F3D56"/>
<path d="M354.14 121.287C353.606 121.127 353.08 120.939 352.566 120.723C351.184 120.307 349.354 121.326 349.538 122.762C349.661 123.715 350.546 124.359 351.035 125.186C351.76 126.413 351.567 127.969 351.186 129.343C351.092 129.769 350.915 130.171 350.663 130.526C350.311 130.901 349.89 131.205 349.424 131.42C347.556 132.47 345.909 133.873 344.574 135.551C344.429 135.705 344.328 135.897 344.281 136.104C344.215 136.589 344.701 136.942 344.976 137.346C345.586 138.244 345.145 139.453 345.205 140.538C345.196 140.691 345.226 140.844 345.292 140.983C345.359 141.121 345.459 141.241 345.585 141.329C345.952 141.517 346.388 141.198 346.588 140.836C347.25 139.634 346.751 137.705 347.992 137.126C348.227 137.016 348.512 136.97 348.669 136.763C348.917 136.435 348.677 135.949 348.803 135.557C348.992 134.968 349.796 134.942 350.412 134.968C351.474 135.013 352.535 134.871 353.548 134.549C353.946 134.455 354.307 134.245 354.587 133.947C354.958 133.482 354.925 132.822 354.851 132.232C354.479 129.289 353.549 126.445 352.111 123.852C353.202 123.992 354.388 124.113 355.329 123.543C355.856 123.224 356.488 122.27 356.227 121.621C355.813 120.594 355.067 121.458 354.14 121.287Z" fill="#3F3D56"/>
<path d="M214.345 137.472C214.476 138.173 214.604 138.912 214.375 139.588C214.145 140.264 213.424 140.828 212.742 140.621C212.214 140.461 211.908 139.928 211.533 139.521C209.445 137.261 204.734 138.57 203.444 135.774C202.917 134.633 203.275 133.266 202.916 132.061C202.689 131.365 202.239 130.764 201.634 130.352C201.03 129.941 200.307 129.742 199.578 129.788C198.913 129.884 198.266 130.077 197.657 130.362C193.579 132 189.297 133.073 184.93 133.554C184.1 133.604 183.279 133.754 182.484 134C180.691 134.651 179.466 136.318 178.594 138.019C177.722 139.72 177.078 141.561 175.909 143.072C174.681 144.66 172.959 145.772 171.353 146.974C170.735 147.374 170.22 147.915 169.85 148.554C169.502 149.27 169.522 150.104 169.549 150.9L169.877 160.575C169.919 161.82 169.972 163.109 170.528 164.222C171.222 165.613 172.592 166.524 173.543 167.752C174.513 169.015 175.019 170.575 174.974 172.168C174.953 172.808 174.89 173.566 175.387 173.968C175.69 174.165 176.044 174.267 176.405 174.261L189.459 175.333C191.756 175.521 194.301 175.831 195.8 177.585C196.507 178.412 197.076 179.603 198.16 179.692C198.624 179.73 199.077 179.538 199.542 179.502C200.715 179.408 201.745 180.301 202.396 181.284C203.38 182.783 203.827 184.572 203.663 186.359C203.556 187.481 203.209 188.571 203.135 189.695C202.85 193.973 206.467 197.689 206.537 201.975C206.578 204.496 205.384 206.852 204.221 209.087C206.099 211.941 204.561 215.74 205.309 219.075C206.018 222.239 208.65 224.717 209.306 227.893C209.606 229.347 209.623 231.136 210.902 231.885C211.463 232.159 212.085 232.284 212.709 232.247C216.468 232.292 220.184 231.444 223.553 229.772C225.135 228.985 226.773 227.811 227.05 226.063C227.272 224.653 226.559 223.077 227.285 221.849C228.14 220.401 230.331 220.516 231.59 219.404C233.631 217.598 232.039 214.156 232.866 211.556C233.61 209.219 236.169 207.977 237.438 205.88C237.937 204.978 238.296 204.004 238.5 202.993C239.082 200.577 239.443 198.113 239.581 195.631C239.615 194.123 239.726 192.618 239.913 191.122C241.281 182.602 249.682 176.898 252.41 168.713C252.671 167.931 252.793 166.89 252.099 166.448C251.688 166.251 251.222 166.202 250.778 166.31L244.761 167.07C244.013 167.165 243.221 167.253 242.534 166.942C241.848 166.63 241.356 165.76 241.72 165.099C242.742 163.243 240.64 160.897 239.706 158.995C237.19 153.873 234.195 149.003 230.76 144.45C230.54 144.215 230.402 143.916 230.367 143.596L232.075 143.653C231.499 141.579 230.547 139.309 228.537 138.551C227.405 138.123 226.151 138.271 224.942 138.337C221.481 138.527 217.771 138.003 214.345 137.472Z" fill="#3F3D56"/>
<path d="M224.945 90.734C225.851 91.6982 226.866 92.7205 228.176 92.8886C230.491 93.1854 232.155 90.7859 233.214 88.7017C233.254 89.2331 233.498 89.7281 233.896 90.0816C234.294 90.435 234.813 90.619 235.344 90.5944C235.915 90.498 236.46 90.2843 236.946 89.9666C241.531 87.4542 246.668 86.123 251.893 86.0926C251.843 85.6958 251.942 85.2943 252.169 84.9658C252.397 84.6372 252.738 84.4048 253.126 84.3135C254.189 84.1023 255.146 85.0232 255.658 85.9799C256.171 86.9365 256.491 88.0454 257.305 88.7614C258.119 89.4775 259.696 89.4463 260.017 88.4094C260.326 87.4139 259.292 86.5649 258.432 85.978C257.573 85.3911 256.667 84.3048 257.246 83.4386C261.636 82.4642 266.054 81.4861 270.547 81.2924C271.312 81.3191 272.075 81.1875 272.786 80.9057C273.472 80.5687 274.016 79.8035 273.832 79.0609C272.852 79.292 271.825 79.2251 270.882 78.8687C269.94 78.5124 269.125 77.8827 268.541 77.06C274.775 76.5443 281.406 76.1047 286.931 79.0456C287.594 80.4725 284.215 81.6596 285.119 82.9466C285.407 83.3571 285.985 83.4052 286.486 83.4146C290.325 83.486 294.186 83.5561 297.982 82.975C299.37 82.7626 300.771 82.4628 302.164 82.635C304.483 82.9219 306.468 84.4736 308.75 84.9796C309.679 85.1855 310.72 85.1925 311.503 84.6508C312.286 84.1092 312.623 82.8758 311.981 82.1717C314.13 80.0603 317.696 80.5836 320.531 81.5944C323.366 82.6053 326.052 84.2354 329.052 84.4607C331.204 84.6223 333.385 84.0421 335.511 84.4109C336.847 84.6426 338.09 85.2385 339.396 85.6045C341.866 86.2969 344.478 86.1507 347.042 86.1841C353.585 86.2724 360.055 87.5615 366.134 89.9874C366.925 90.2455 367.65 90.6747 368.257 91.2446C368.822 91.8518 369.111 92.7955 368.731 93.5338L362.449 92.6136C363.041 93.7816 364.572 93.9807 365.816 94.3837C367.059 94.7866 368.348 96.1633 367.601 97.238C366.254 96.808 365.033 98.1584 364.352 99.4009C363.672 100.643 362.842 102.131 361.43 102.207C360.166 102.275 358.637 101.196 357.813 102.159C358.951 103.599 359.926 105.162 360.72 106.818C361.534 108.519 362.114 110.662 361.013 112.191C360.84 112.465 360.578 112.669 360.271 112.769C359.372 112.997 358.788 111.895 358.143 111.227C357.331 110.385 356.103 110.146 355.003 109.751C353.903 109.357 352.745 108.58 352.659 107.412C352.605 106.685 352.988 106.01 353.27 105.338C353.743 104.206 353.951 102.98 353.875 101.754C353.814 100.768 353.538 99.7428 352.832 99.054C352.125 98.3652 350.906 98.1467 350.148 98.7775C349.794 99.0719 349.511 99.5428 349.051 99.5604C348.24 99.5915 347.616 98.1728 346.963 98.6571C347.04 99.1731 346.933 99.6997 346.662 100.145C344.713 101.844 341.719 101.125 339.207 101.725C338.012 102.068 336.869 102.569 335.806 103.214C335.408 103.385 335.07 103.67 334.834 104.033C334.52 104.644 334.866 105.426 335.419 105.832C336.005 106.193 336.663 106.418 337.347 106.492C340.41 107.074 343.517 107.974 345.936 109.946C348.354 111.919 349.939 115.179 349.174 118.208L343.134 112.422C343.364 114.852 343.494 117.288 343.525 119.731C343.564 120.208 343.498 120.688 343.333 121.137C342.903 122.09 341.736 122.411 340.713 122.621C340.429 122.676 340.159 122.789 339.921 122.956C339.684 123.122 339.484 123.336 339.335 123.585C339.187 123.834 339.092 124.112 339.058 124.4C339.024 124.689 339.051 124.981 339.137 125.258C339.501 126.445 340.407 127.371 341.236 128.293C342.066 129.216 342.882 130.264 342.991 131.501C343.099 132.738 342.168 134.133 340.932 134.047C339.996 133.982 339.301 133.141 338.901 132.289C338.501 131.437 338.264 130.488 337.663 129.764C335.846 127.572 331.764 128.511 330.136 126.175C329.721 126.647 329.433 127.218 329.3 127.832C329.167 128.447 329.192 129.086 329.375 129.688C330.132 129.213 331.169 129.654 331.738 130.345C332.307 131.036 332.575 131.921 333.022 132.697C333.625 133.744 334.585 134.672 334.669 135.877C334.647 136.333 334.654 136.79 334.692 137.245C334.842 137.976 335.458 138.501 335.885 139.111C336.878 140.532 336.829 142.485 336.189 144.097C335.548 145.709 334.397 147.056 333.258 148.363C331.267 150.644 329.235 152.912 326.875 154.807C326.202 155.347 325.483 155.879 325.063 156.635C324.644 157.391 324.622 158.452 325.267 159.027C324.806 159.05 323.979 159.277 323.517 159.3C323.355 157.445 323.32 155.582 323.412 153.722C321.592 152.846 319.632 155.192 319.867 157.203C320.102 159.213 321.552 160.826 322.585 162.566C323.34 163.838 323.901 165.321 323.649 166.779C323.397 168.238 322.099 169.583 320.628 169.454C318.288 169.25 317.309 165.883 314.993 165.497C314.788 165.449 314.574 165.47 314.383 165.558C314.039 165.747 313.979 166.208 313.96 166.601C313.865 168.529 313.783 170.534 314.534 172.311C315.632 174.912 318.469 177.096 317.874 179.856C314.668 178.362 313.001 174.757 312.244 171.295C311.487 167.833 311.361 164.198 310.005 160.925C308.974 162.249 306.809 161.154 305.868 159.766C304.976 158.449 304.426 156.926 303.56 155.592C302.695 154.257 301.368 153.063 299.782 152.989C298.119 152.912 296.677 154.056 295.409 155.137C294.366 156.026 293.295 156.95 292.686 158.179C291.799 159.967 292.031 162.075 291.988 164.071C291.942 166.23 291.485 168.507 290.018 170.087C288.551 171.667 285.842 172.218 284.224 170.793C283.379 170.05 282.97 168.939 282.605 167.873C280.849 162.733 279.386 157.497 278.223 152.191C277.951 153.402 276.891 154.963 275.877 154.249C275.65 154.058 275.466 153.82 275.337 153.551C273.446 150.339 269.945 148.412 266.408 147.257C262.871 146.102 259.15 145.563 255.652 144.294C253.691 143.582 251.819 142.647 250.072 141.507C249.626 142.163 249.366 142.928 249.319 143.72C249.272 144.512 249.439 145.303 249.803 146.007C250.579 147.385 252.335 148.182 253.838 147.7C254.615 147.452 255.271 146.911 256.042 146.644C256.812 146.377 257.847 146.508 258.184 147.252C258.506 147.965 258.019 148.827 258.26 149.571C258.629 150.704 260.333 150.791 260.929 151.822C261.373 152.589 261.008 153.608 260.375 154.227C259.742 154.846 258.897 155.186 258.124 155.617C255.616 157.015 253.832 159.402 251.64 161.259C249.449 163.116 246.356 164.471 243.744 163.28C244.367 160.119 240.611 157.799 239.92 154.652C239.692 153.616 239.81 152.516 239.486 151.507C239.016 150.045 237.722 149.041 236.662 147.933C235.375 146.575 234.372 144.973 233.713 143.221C233.054 141.468 232.752 139.601 232.825 137.73C232.882 136.429 233.12 135.108 232.825 133.84C232.529 132.572 231.482 131.346 230.185 131.403C227.222 131.534 223.49 131.755 221.936 129.223C221.381 128.319 221.139 126.996 221.942 126.303C222.507 125.815 223.343 125.861 224.086 125.934L230.761 126.593C232.322 126.747 234.01 126.874 235.35 126.055C236.69 125.237 237.27 123.065 236.03 122.102C235.123 121.399 233.499 121.437 233.236 120.319C233.016 119.387 234.045 118.33 233.489 117.552C233.091 116.994 232.196 117.149 231.653 117.567C231.11 117.985 230.717 118.597 230.11 118.914C229.044 119.47 227.772 118.941 226.626 118.581C225.48 118.222 223.943 118.191 223.387 119.259C222.766 120.452 223.939 122.016 223.322 123.212C222.506 124.793 219.744 123.893 218.598 125.253C217.284 126.813 219.493 129.14 219.049 131.134C218.483 131.415 217.854 131.544 217.224 131.508C216.593 131.473 215.983 131.274 215.452 130.931C214.929 130.575 214.513 130.084 214.247 129.509C213.981 128.935 213.876 128.299 213.941 127.669C214.051 126.772 214.518 125.857 214.205 125.009C213.952 124.324 213.266 123.916 212.628 123.563L206.141 119.969C205.539 121.089 206.3 122.478 207.253 123.319C208.205 124.16 209.398 124.794 210.023 125.901C210.419 126.668 210.508 127.558 210.271 128.388C210.035 129.219 209.491 129.927 208.751 130.37C208.658 130.434 208.553 130.477 208.442 130.496C208.331 130.516 208.217 130.511 208.108 130.482C208.005 130.421 207.914 130.34 207.843 130.243C207.771 130.147 207.72 130.037 207.691 129.92C206.547 126.983 204.828 124.088 202.081 122.554C199.333 121.02 195.386 121.336 193.584 123.92C193.156 124.533 192.869 125.233 192.496 125.882C190.515 129.329 186.27 130.962 182.303 130.855C181.915 130.877 181.528 130.786 181.191 130.593C180.549 130.149 180.578 129.207 180.676 128.433L181.093 125.144C181.176 124.484 181.298 123.754 181.819 123.341C182.554 122.76 183.614 123.127 184.55 123.114C185.259 123.08 185.941 122.829 186.503 122.394C187.065 121.96 187.479 121.362 187.691 120.683C187.88 119.997 187.879 119.273 187.688 118.587C187.496 117.902 187.122 117.282 186.605 116.794C186.176 116.39 185.601 115.883 185.827 115.339C185.918 115.188 186.04 115.059 186.185 114.961C186.331 114.863 186.496 114.798 186.669 114.77C188.35 114.281 190.127 114.153 191.78 113.575C193.433 112.998 195.036 111.816 195.427 110.106C195.547 109.581 195.602 108.946 196.071 108.686C196.307 108.587 196.56 108.535 196.816 108.534C197.712 108.406 198.528 107.947 199.103 107.246C199.679 106.545 199.971 105.654 199.924 104.747C200.716 104.193 201.826 104.601 202.592 105.191C203.359 105.781 204.035 106.561 204.968 106.816C206.706 107.29 208.385 105.747 210.186 105.74C210.944 105.737 211.728 106.005 212.441 105.748C213.163 105.487 213.594 104.766 214.149 104.234C214.703 103.701 215.676 103.376 216.188 103.95L215.752 100.713C216.63 100.935 217.545 100.966 218.436 100.805C219.327 100.643 220.174 100.293 220.918 99.7762L215.284 97.8676C215.088 97.8185 214.907 97.7215 214.757 97.5852C214.348 97.143 214.754 96.4539 215.088 95.9512C215.884 94.7487 216.018 92.7679 214.708 92.1692C213.813 91.7606 212.787 92.2511 211.928 92.731L207.816 95.0297C207.685 95.8134 208.641 96.2575 209.233 96.7854C209.592 97.1047 209.845 97.5253 209.961 97.9918C210.077 98.4584 210.049 98.949 209.881 99.3994C209.713 99.8498 209.414 100.239 209.022 100.515C208.629 100.792 208.163 100.943 207.684 100.949C207.954 101.302 208.142 101.711 208.234 102.147C208.326 102.583 208.318 103.034 208.212 103.466L205.446 103.666C205.135 103.728 204.812 103.665 204.548 103.49C204.252 103.226 204.292 102.765 204.224 102.374C204.058 101.431 203.137 100.77 202.197 100.6C201.257 100.431 200.295 100.648 199.364 100.862C198.969 101.005 198.534 100.995 198.146 100.834C197.923 100.689 197.754 100.475 197.664 100.225C197.256 99.2325 197.638 98.0663 198.293 97.2179C198.949 96.3694 199.846 95.7492 200.652 95.0428C202.579 93.3475 203.995 91.1456 204.74 88.6859C206.263 88.0461 207.84 87.1768 209.363 86.537C211.712 85.345 214.345 84.8335 216.967 85.0599L222.126 85.1587C223.653 85.1879 225.221 85.2254 226.634 85.8091C228.046 86.3928 229.287 87.6553 229.384 89.1835C229.414 89.3565 229.399 89.5342 229.341 89.6998C229.283 89.8655 229.184 90.0137 229.053 90.1305C228.854 90.2396 228.628 90.2906 228.401 90.2779C226.977 90.328 226.37 90.6838 224.945 90.734Z" fill="#3F3D56"/>
<path d="M183.83 106.941C184.032 106.75 184.177 106.507 184.25 106.238C184.322 105.97 184.32 105.686 184.242 105.419C183.752 105.23 183.218 105.181 182.702 105.279C182.185 105.376 181.706 105.617 181.319 105.973C181.013 106.283 180.75 106.632 180.535 107.011C179.857 108.119 179.258 109.444 179.651 110.683C179.683 110.818 179.741 110.945 179.823 111.058C179.905 111.17 180.008 111.264 180.127 111.336C180.303 111.407 180.493 111.437 180.682 111.423C181.429 111.422 182.175 111.376 182.916 111.285C183.371 111.229 183.9 111.101 184.076 110.676C184.307 110.118 183.747 109.486 183.91 108.905C184.018 108.644 184.18 108.411 184.387 108.22C184.49 108.124 184.568 108.006 184.617 107.874C184.666 107.742 184.683 107.601 184.668 107.461C184.602 107.188 184.185 107.033 184.035 107.27" fill="#3F3D56"/>
<path d="M187.703 101.908C187.039 101.756 186.355 101.713 185.678 101.781C185.528 101.777 185.38 101.81 185.247 101.879C185.118 101.975 185.024 102.111 184.981 102.265C184.838 102.725 184.873 103.223 185.08 103.658C185.286 104.094 185.648 104.435 186.094 104.615C186.338 104.671 186.571 104.765 186.785 104.893C187.357 105.338 186.992 106.248 187.101 106.967C187.222 107.773 188.001 108.45 187.858 109.253C187.746 109.886 187.072 110.387 187.18 111.021C187.294 111.684 188.134 111.883 188.803 111.937C189.191 112.005 189.59 111.959 189.953 111.804C190.316 111.555 190.575 111.18 190.678 110.751C190.952 109.934 191.067 109.071 191.017 108.21C191.014 107.818 190.916 107.433 190.732 107.088C190.53 106.814 190.307 106.558 190.063 106.321C188.781 104.825 190.131 102.595 187.703 101.908Z" fill="#3F3D56"/>
<path opacity="0.8" d="M356.334 219.058C356.334 219.058 258.116 162.536 215.832 173.245C215.832 173.245 126.219 182.914 115.833 204.184C115.833 204.184 87.347 114.938 76.9614 111.964" stroke="#6C63FF" stroke-width="2" stroke-miterlimit="10"/>
<path opacity="0.8" d="M115.833 204.184C132.302 160.156 280.668 111.369 280.668 111.369C259.6 116.723 215.832 173.245 215.832 173.245C215.832 173.245 123.252 105.716 76.9614 111.964C76.9614 111.964 280.816 118.657 356.334 219.058" stroke="#6C63FF" stroke-width="2" stroke-miterlimit="10"/>
<path d="M76.9613 116.277C79.3376 116.277 81.2639 114.346 81.2639 111.964C81.2639 109.581 79.3376 107.65 76.9613 107.65C74.585 107.65 72.6587 109.581 72.6587 111.964C72.6587 114.346 74.585 116.277 76.9613 116.277Z" fill="#2D3192"/>
<path d="M115.833 208.497C118.21 208.497 120.136 206.566 120.136 204.184C120.136 201.802 118.21 199.87 115.833 199.87C113.457 199.87 111.531 201.802 111.531 204.184C111.531 206.566 113.457 208.497 115.833 208.497Z" fill="#2D3192"/>
<path d="M280.668 115.682C283.044 115.682 284.97 113.751 284.97 111.369C284.97 108.986 283.044 107.055 280.668 107.055C278.292 107.055 276.365 108.986 276.365 111.369C276.365 113.751 278.292 115.682 280.668 115.682Z" fill="#2D3192"/>
<path d="M356.334 223.372C358.711 223.372 360.637 221.44 360.637 219.058C360.637 216.676 358.711 214.745 356.334 214.745C353.958 214.745 352.032 216.676 352.032 219.058C352.032 221.44 353.958 223.372 356.334 223.372Z" fill="#2D3192"/>
<path d="M215.832 177.559C218.208 177.559 220.135 175.628 220.135 173.245C220.135 170.863 218.208 168.932 215.832 168.932C213.456 168.932 211.529 170.863 211.529 173.245C211.529 175.628 213.456 177.559 215.832 177.559Z" fill="#2D3192"/>
</g>
<defs>
<clipPath id="clip0_12_958">
<rect width="423" height="315" fill="white"/>
</clipPath>
</defs>
</svg>
