<svg width="338" height="251" viewBox="0 0 338 251" fill="none" xmlns="http://www.w3.org/2000/svg">
<g clip-path="url(#clip0_14_434)">
<path d="M114.105 233.481L108.953 238.199L113.047 231.365C109.821 225.546 104.546 220.517 104.546 220.517C104.546 220.517 93.6006 230.949 93.6006 239.148C93.6006 247.348 98.5009 250.211 104.546 250.211C110.591 250.211 115.491 247.348 115.491 239.148C115.423 237.185 114.951 235.256 114.105 233.481Z" fill="#F2F2F2"/>
<path d="M107.627 238.455V238.859C107.603 243.557 106.807 247.222 105.244 249.803C105.222 249.841 105.197 249.877 105.175 249.915L105 249.809L104.833 249.705C106.567 246.918 107.181 242.979 107.203 238.881C107.205 238.749 107.207 238.615 107.205 238.481C107.199 236.746 107.092 234.991 106.921 233.286C106.909 233.154 106.895 233.02 106.881 232.886C106.644 230.637 106.302 228.488 105.952 226.622C105.928 226.49 105.901 226.357 105.875 226.227C105.27 223.07 104.652 220.783 104.512 220.277C104.495 220.215 104.485 220.181 104.483 220.173L104.674 220.119L104.677 220.117L104.87 220.063C104.872 220.071 104.906 220.185 104.962 220.397C105.177 221.189 105.737 223.34 106.286 226.177C106.31 226.305 106.336 226.438 106.36 226.57C106.646 228.084 106.925 229.777 107.147 231.554C107.203 232 107.253 232.44 107.297 232.874C107.313 233.008 107.328 233.142 107.34 233.274C107.525 235.117 107.621 236.844 107.627 238.455Z" fill="white"/>
<path d="M106.286 226.177C106.151 226.195 106.015 226.213 105.876 226.227C105.499 226.266 105.12 226.285 104.741 226.285C103.127 226.288 101.532 225.929 100.075 225.237C99.9903 225.343 99.9058 225.449 99.8193 225.557C101.352 226.301 103.036 226.687 104.741 226.686C105.146 226.686 105.55 226.664 105.952 226.622C106.089 226.608 106.226 226.59 106.36 226.57C107.473 226.411 108.555 226.085 109.569 225.603C109.482 225.493 109.398 225.385 109.315 225.279C108.355 225.725 107.335 226.028 106.286 226.177Z" fill="white"/>
<path d="M107.297 232.874C107.159 232.882 107.02 232.886 106.881 232.886C106.839 232.888 106.795 232.888 106.752 232.888C105.003 232.888 103.279 232.467 101.728 231.662C100.177 230.856 98.8453 229.689 97.8458 228.26C97.7653 228.378 97.6849 228.496 97.6064 228.616C98.6482 230.062 100.021 231.24 101.612 232.052C103.202 232.864 104.964 233.288 106.752 233.288C106.809 233.288 106.865 233.288 106.921 233.286C107.062 233.284 107.201 233.28 107.34 233.274C109.487 233.165 111.558 232.443 113.304 231.193C113.239 231.075 113.175 230.957 113.108 230.839C111.412 232.066 109.392 232.773 107.297 232.874Z" fill="white"/>
<path d="M107.627 238.455C107.487 238.467 107.346 238.475 107.205 238.481C107.054 238.487 106.903 238.491 106.752 238.491C104.401 238.488 102.114 237.728 100.234 236.324C98.3535 234.92 96.9808 232.948 96.3212 230.703C96.2307 230.865 96.1402 231.025 96.0537 231.188C96.7968 233.427 98.2305 235.377 100.151 236.76C102.072 238.143 104.382 238.888 106.752 238.891C106.903 238.891 107.054 238.889 107.203 238.881C107.346 238.877 107.487 238.869 107.627 238.859C110.471 238.637 113.125 237.349 115.05 235.255C115.007 235.107 114.959 234.961 114.911 234.813C113.051 236.923 110.439 238.229 107.627 238.455Z" fill="white"/>
<path d="M307.376 240.661L300.385 241.062L307.906 238.358C309.119 231.823 308.243 224.607 308.243 224.607C308.243 224.607 293.13 225.775 287.906 232.117C282.681 238.459 284.647 243.763 289.323 247.575C293.998 251.386 299.613 252.261 304.837 245.919C306.036 244.357 306.9 242.568 307.376 240.661Z" fill="#F2F2F2"/>
<path d="M299.197 240.425L298.939 240.737C295.927 244.356 292.976 246.689 290.122 247.7C290.081 247.715 290.039 247.728 289.998 247.743L289.93 247.551L289.867 247.365C292.984 246.303 295.969 243.642 298.597 240.487C298.683 240.386 298.77 240.283 298.854 240.178C299.954 238.833 300.99 237.408 301.944 235.982C302.019 235.872 302.093 235.76 302.168 235.647C303.417 233.758 304.522 231.88 305.441 230.216C305.506 230.098 305.57 229.98 305.633 229.863C307.176 227.039 308.156 224.88 308.369 224.4C308.396 224.342 308.41 224.309 308.414 224.302L308.596 224.381L308.599 224.38L308.783 224.46C308.779 224.468 308.733 224.578 308.641 224.777C308.303 225.526 307.365 227.542 305.982 230.083C305.919 230.197 305.855 230.316 305.79 230.433C305.045 231.784 304.183 233.27 303.222 234.784C302.981 235.164 302.74 235.537 302.497 235.9C302.424 236.014 302.35 236.127 302.275 236.236C301.244 237.779 300.218 239.175 299.197 240.425Z" fill="white"/>
<path d="M305.982 230.083C305.866 230.012 305.749 229.939 305.632 229.863C305.316 229.655 305.011 229.431 304.718 229.192C303.468 228.176 302.462 226.893 301.777 225.439C301.644 225.468 301.511 225.497 301.375 225.526C302.086 227.068 303.143 228.428 304.463 229.502C304.776 229.757 305.102 229.995 305.44 230.216C305.555 230.291 305.672 230.363 305.789 230.433C306.751 231.011 307.795 231.441 308.887 231.708C308.89 231.569 308.893 231.432 308.897 231.298C307.87 231.038 306.888 230.628 305.982 230.083Z" fill="white"/>
<path d="M302.498 235.9C302.385 235.819 302.275 235.735 302.168 235.647C302.134 235.622 302.1 235.594 302.067 235.567C300.714 234.464 299.649 233.052 298.962 231.451C298.276 229.85 297.99 228.107 298.127 226.372C297.989 226.413 297.852 226.453 297.715 226.497C297.6 228.272 297.911 230.048 298.624 231.68C299.336 233.311 300.429 234.75 301.812 235.877C301.856 235.913 301.899 235.948 301.944 235.982C302.054 236.069 302.164 236.154 302.275 236.236C304.006 237.506 306.068 238.253 308.214 238.387C308.24 238.255 308.265 238.123 308.289 237.99C306.195 237.869 304.182 237.143 302.498 235.9Z" fill="white"/>
<path d="M299.197 240.425C299.08 240.345 298.966 240.263 298.853 240.178C298.733 240.088 298.614 239.996 298.497 239.901C296.68 238.416 295.396 236.387 294.836 234.115C294.276 231.844 294.47 229.453 295.39 227.301C295.217 227.369 295.045 227.436 294.875 227.507C294.023 229.707 293.889 232.119 294.494 234.4C295.098 236.68 296.41 238.714 298.242 240.21C298.359 240.305 298.477 240.399 298.597 240.487C298.71 240.574 298.824 240.656 298.939 240.737C301.28 242.359 304.153 243.036 306.976 242.63C307.038 242.488 307.093 242.345 307.15 242.2C304.368 242.66 301.515 242.023 299.197 240.425Z" fill="white"/>
<path d="M64.8381 245.374L70.2895 245.374L71.3012 224.345L64.8369 224.458L64.8381 245.374Z" fill="#FFB6B6"/>
<path d="M63.4473 243.604L74.183 243.603H74.1835C75.998 243.603 77.7381 244.32 79.0211 245.597C80.3042 246.873 81.025 248.604 81.0252 250.409V250.63L63.4476 250.631L63.4473 243.604Z" fill="#2F2E41"/>
<path d="M42.8 245.374L48.2514 245.374L49.3319 224.345L42.7988 224.458L42.8 245.374Z" fill="#FFB6B6"/>
<path d="M41.4102 243.604L52.1459 243.603H52.1464C53.9609 243.603 55.701 244.32 56.984 245.597C58.2671 246.873 58.9879 248.604 58.988 250.409V250.63L41.4105 250.631L41.4102 243.604Z" fill="#2F2E41"/>
<path d="M95.9031 155.285C95.8814 154.656 95.7216 154.041 95.4348 153.481C95.1481 152.92 94.7414 152.43 94.2433 152.043C93.7453 151.656 93.1681 151.383 92.5523 151.242C91.9366 151.101 91.2972 151.096 90.6794 151.228L82.7199 138.162L79.2988 145.335L87.3818 156.643C87.6727 157.66 88.3288 158.537 89.2258 159.105C90.1229 159.674 91.1985 159.896 92.2488 159.729C93.2992 159.561 94.2513 159.016 94.9248 158.197C95.5983 157.378 95.9464 156.342 95.9031 155.285Z" fill="#FFB6B6"/>
<path d="M29.3915 168.951C29.763 168.443 30.0178 167.86 30.1381 167.243C30.2584 166.626 30.2412 165.99 30.0878 165.38C29.9344 164.771 29.6485 164.202 29.2502 163.714C28.8519 163.226 28.3509 162.831 27.7825 162.556L29.5887 147.385L22.4555 150.946L21.8339 164.807C21.4337 165.787 21.4089 166.88 21.7643 167.877C22.1197 168.875 22.8306 169.708 23.7622 170.218C24.6937 170.729 25.7813 170.882 26.8189 170.649C27.8564 170.415 28.7718 169.811 29.3915 168.951Z" fill="#FFB6B6"/>
<path d="M68.0348 153.583L71.8952 155.857C71.8952 155.857 75.032 157.844 73.9771 171.659C72.9223 185.474 71.6618 240.825 71.6618 240.825H64.819L53.7365 174.706L49.6928 241.541L42.4898 241.183C42.4898 241.183 27.7734 165.09 34.1412 156.832L68.0348 153.583Z" fill="#2F2E41"/>
<path d="M31.8105 104.691C31.8105 104.691 50.5838 98.6879 65.7305 104.285L64.4904 133.348L73.8335 156.019C73.8335 156.019 44.1307 167.48 34.2323 157.848L37.1192 135.139L31.8105 104.691Z" fill="#FFCD11"/>
<path d="M60.6836 107.698L64.6176 104.285C64.6176 104.285 67.2418 104.254 69.5001 108.27C71.7584 112.286 75.8498 125.25 75.8498 125.25L88.9481 147.32L83.1857 151.261L62.4117 122.361L60.6836 107.698Z" fill="#FFCD11"/>
<path d="M32.5073 106.124L32.7756 104.304C32.7756 104.304 25.4609 104.842 24.8421 111.853C24.2233 118.864 21.9609 158.426 21.9609 158.426L29.1963 159.859L36.3939 119.254L32.5073 106.124Z" fill="#FFCD11"/>
<path d="M57.8655 94.1876L35.9201 98.4862C35.4686 98.5741 35.0005 98.4803 34.6184 98.2253C34.2363 97.9703 33.9716 97.575 33.8822 97.126L32.0195 87.7166C31.3595 84.3733 32.0612 80.9062 33.9703 78.0774C35.8794 75.2486 38.8396 73.2898 42.2002 72.6315C45.5608 71.9733 49.0466 72.6695 51.8913 74.567C54.736 76.4646 56.7067 79.4083 57.3702 82.7508L59.2329 92.1603C59.3213 92.6095 59.2269 93.0752 58.9706 93.4552C58.7142 93.8352 58.3168 94.0986 57.8655 94.1876Z" fill="#2F2E41"/>
<path d="M47.6249 95.7851C52.8559 95.7851 57.0965 91.5668 57.0965 86.3633C57.0965 81.1598 52.8559 76.9415 47.6249 76.9415C42.3939 76.9415 38.1533 81.1598 38.1533 86.3633C38.1533 91.5668 42.3939 95.7851 47.6249 95.7851Z" fill="#FFB6B6"/>
<path d="M60.5561 83.1043L47.137 85.7329L46.62 83.8434L46.3113 85.8946L44.2451 86.2993L43.2205 82.5544L42.6088 86.6199L38.6107 87.403L38.5734 87.2148C38.0529 84.5699 38.6084 81.8276 40.118 79.5895C41.6275 77.3515 43.9679 75.8004 46.6257 75.2767L48.5176 74.9061C51.1765 74.3884 53.9334 74.941 56.1832 76.4426C58.4331 77.9443 59.9923 80.2724 60.5188 82.9162L60.5561 83.1043Z" fill="#2F2E41"/>
<path d="M49.3857 97.6731C49.2846 97.6928 49.1821 97.7037 49.0791 97.7057L38.9117 97.9058L35.7139 81.7516L46.5305 79.6329L46.3241 79.9959C43.4539 85.0482 47.6484 91.5074 50.4041 94.9079C50.6069 95.1567 50.7349 95.4575 50.7733 95.7756C50.8118 96.0936 50.7592 96.416 50.6215 96.7056C50.5071 96.9526 50.3355 97.1691 50.1206 97.3373C49.9058 97.5055 49.6539 97.6206 49.3857 97.6731Z" fill="#2F2E41"/>
<path d="M193.775 0.105774H62.7285V68.5527H193.775V0.105774Z" fill="#F2F2F2"/>
<path d="M193.694 0H62.6484V7.93489H193.694V0Z" fill="#E6E6E6"/>
<path d="M191.322 11.1521H65.6924V64.9447H191.322V11.1521Z" fill="white"/>
<path d="M75.0666 5.25976C75.7953 5.25976 76.3861 4.6721 76.3861 3.94717C76.3861 3.22225 75.7953 2.63458 75.0666 2.63458C74.3378 2.63458 73.7471 3.22225 73.7471 3.94717C73.7471 4.6721 74.3378 5.25976 75.0666 5.25976Z" fill="white"/>
<path d="M80.0754 5.25976C80.8041 5.25976 81.3949 4.6721 81.3949 3.94717C81.3949 3.22225 80.8041 2.63458 80.0754 2.63458C79.3466 2.63458 78.7559 3.22225 78.7559 3.94717C78.7559 4.6721 79.3466 5.25976 80.0754 5.25976Z" fill="white"/>
<path d="M70.0451 5.25976C70.7739 5.25976 71.3646 4.6721 71.3646 3.94717C71.3646 3.22225 70.7739 2.63458 70.0451 2.63458C69.3164 2.63458 68.7256 3.22225 68.7256 3.94717C68.7256 4.6721 69.3164 5.25976 70.0451 5.25976Z" fill="white"/>
<path d="M87.0947 51.8093C88.3751 51.8093 89.4131 50.7768 89.4131 49.5031C89.4131 48.2295 88.3751 47.197 87.0947 47.197C85.8143 47.197 84.7764 48.2295 84.7764 49.5031C84.7764 50.7768 85.8143 51.8093 87.0947 51.8093Z" fill="#E4E4E4"/>
<path d="M107.574 45.7696C108.855 45.7696 109.893 44.7371 109.893 43.4635C109.893 42.1898 108.855 41.1573 107.574 41.1573C106.294 41.1573 105.256 42.1898 105.256 43.4635C105.256 44.7371 106.294 45.7696 107.574 45.7696Z" fill="#E4E4E4"/>
<path d="M128.053 51.8093C129.333 51.8093 130.371 50.7768 130.371 49.5031C130.371 48.2295 129.333 47.197 128.053 47.197C126.772 47.197 125.734 48.2295 125.734 49.5031C125.734 50.7768 126.772 51.8093 128.053 51.8093Z" fill="#E4E4E4"/>
<path d="M148.531 21.3443C149.812 21.3443 150.85 20.3118 150.85 19.0381C150.85 17.7644 149.812 16.7319 148.531 16.7319C147.251 16.7319 146.213 17.7644 146.213 19.0381C146.213 20.3118 147.251 21.3443 148.531 21.3443Z" fill="#E4E4E4"/>
<path d="M169.01 21.0604C170.29 21.0604 171.328 20.0279 171.328 18.7542C171.328 17.4806 170.29 16.4481 169.01 16.4481C167.729 16.4481 166.691 17.4806 166.691 18.7542C166.691 20.0279 167.729 21.0604 169.01 21.0604Z" fill="#E4E4E4"/>
<path d="M128.101 50.0199L107.574 43.6756L87.3269 49.8109L86.8633 49.1956L107.574 42.7152L128.004 48.9867L148.305 18.7145L148.387 18.6814L168.866 18.6456L169.155 19.3589L148.757 19.362L128.101 50.0199Z" fill="#E4E4E4"/>
<path d="M215.723 89.749H92.4004V154.162H215.723V89.749Z" fill="#F2F2F2"/>
<path d="M215.646 89.6494H92.3242V97.1166H215.646V89.6494Z" fill="#E6E6E6"/>
<path d="M213.414 99.7131H95V150.882H213.414V99.7131Z" fill="white"/>
<path d="M104.011 94.5991C104.697 94.5991 105.253 94.0461 105.253 93.3639C105.253 92.6817 104.697 92.1287 104.011 92.1287C103.325 92.1287 102.77 92.6817 102.77 93.3639C102.77 94.0461 103.325 94.5991 104.011 94.5991Z" fill="white"/>
<path d="M108.724 94.5991C109.41 94.5991 109.966 94.0461 109.966 93.3639C109.966 92.6817 109.41 92.1287 108.724 92.1287C108.038 92.1287 107.482 92.6817 107.482 93.3639C107.482 94.0461 108.038 94.5991 108.724 94.5991Z" fill="white"/>
<path d="M99.2847 94.5991C99.9705 94.5991 100.526 94.0461 100.526 93.3639C100.526 92.6817 99.9705 92.1287 99.2847 92.1287C98.5989 92.1287 98.043 92.6817 98.043 93.3639C98.043 94.0461 98.5989 94.5991 99.2847 94.5991Z" fill="white"/>
<path d="M298.048 28.2285H151.767V104.633H298.048V28.2285Z" fill="#E6E6E6"/>
<path d="M297.959 28.1104H151.678V36.9678H297.959V28.1104Z" fill="#FFCD11"/>
<path d="M294.529 39.6884H155.051V100.369H294.529V39.6884Z" fill="white"/>
<path d="M165.539 33.9817C166.353 33.9817 167.012 33.3257 167.012 32.5165C167.012 31.7073 166.353 31.0513 165.539 31.0513C164.726 31.0513 164.066 31.7073 164.066 32.5165C164.066 33.3257 164.726 33.9817 165.539 33.9817Z" fill="white"/>
<path d="M171.13 33.9817C171.944 33.9817 172.603 33.3257 172.603 32.5165C172.603 31.7073 171.944 31.0513 171.13 31.0513C170.317 31.0513 169.657 31.7073 169.657 32.5165C169.657 33.3257 170.317 33.9817 171.13 33.9817Z" fill="white"/>
<path d="M159.934 33.9817C160.747 33.9817 161.407 33.3257 161.407 32.5165C161.407 31.7073 160.747 31.0513 159.934 31.0513C159.12 31.0513 158.461 31.7073 158.461 32.5165C158.461 33.3257 159.12 33.9817 159.934 33.9817Z" fill="white"/>
<path d="M225.786 52.9847C225.496 53.023 225.23 53.1647 225.037 53.3835C224.845 53.6023 224.738 53.8834 224.738 54.1743C224.738 54.4652 224.845 54.7462 225.037 54.965C225.23 55.1839 225.496 55.3256 225.786 55.3638H275.177C275.467 55.3256 275.733 55.1839 275.925 54.965C276.118 54.7462 276.224 54.4652 276.224 54.1743C276.224 53.8834 276.118 53.6023 275.925 53.3835C275.733 53.1647 275.467 53.023 275.177 52.9847H225.786Z" fill="#E6E6E6"/>
<path d="M225.786 81.0406C225.496 81.0788 225.23 81.2206 225.037 81.4394C224.845 81.6582 224.738 81.9392 224.738 82.2301C224.738 82.5211 224.845 82.8021 225.037 83.0209C225.23 83.2397 225.496 83.3814 225.786 83.4197H275.177C275.467 83.3814 275.733 83.2397 275.925 83.0209C276.118 82.8021 276.224 82.5211 276.224 82.2301C276.224 81.9392 276.118 81.6582 275.925 81.4394C275.733 81.2206 275.467 81.0788 275.177 81.0406H225.786Z" fill="#E6E6E6"/>
<path d="M225.786 60.122C225.496 60.1603 225.23 60.302 225.037 60.5208C224.845 60.7396 224.738 61.0206 224.738 61.3115C224.738 61.6025 224.845 61.8835 225.037 62.1023C225.23 62.3211 225.496 62.4628 225.786 62.5011H247.039C247.329 62.4628 247.595 62.3211 247.788 62.1023C247.98 61.8835 248.087 61.6025 248.087 61.3115C248.087 61.0206 247.98 60.7396 247.788 60.5208C247.595 60.302 247.329 60.1603 247.039 60.122H225.786Z" fill="#E6E6E6"/>
<path d="M225.786 66.9252C225.496 66.9634 225.23 67.1051 225.037 67.324C224.845 67.5428 224.738 67.8238 224.738 68.1147C224.738 68.4056 224.845 68.6866 225.037 68.9055C225.23 69.1243 225.496 69.266 225.786 69.3043H275.177C275.467 69.266 275.733 69.1243 275.925 68.9055C276.118 68.6866 276.224 68.4056 276.224 68.1147C276.224 67.8238 276.118 67.5428 275.925 67.324C275.733 67.1051 275.467 66.9634 275.177 66.9252H225.786Z" fill="#E6E6E6"/>
<path d="M225.786 74.0624C225.496 74.1006 225.23 74.2424 225.037 74.4612C224.845 74.68 224.738 74.961 224.738 75.2519C224.738 75.5428 224.845 75.8239 225.037 76.0427C225.23 76.2615 225.496 76.4032 225.786 76.4415H247.039C247.329 76.4032 247.595 76.2615 247.788 76.0427C247.98 75.8239 248.087 75.5428 248.087 75.2519C248.087 74.961 247.98 74.68 247.788 74.4612C247.595 74.2424 247.329 74.1006 247.039 74.0624H225.786Z" fill="#E6E6E6"/>
<path d="M197 82.1164C197.15 82.1168 197.298 82.0878 197.437 82.031C197.575 81.9743 197.701 81.891 197.807 81.7859C197.913 81.6808 197.997 81.5559 198.054 81.4185C198.112 81.281 198.141 81.1336 198.141 80.9847C198.141 80.8359 198.112 80.6885 198.055 80.5509C197.997 80.4134 197.913 80.2884 197.807 80.1832C197.702 80.078 197.576 79.9946 197.438 79.9377C197.299 79.8809 197.151 79.8517 197.001 79.8519H173.91C173.761 79.8516 173.612 79.8806 173.474 79.9373C173.336 79.994 173.21 80.0773 173.104 80.1824C172.998 80.2876 172.914 80.4124 172.857 80.5499C172.799 80.6874 172.77 80.8348 172.77 80.9836C172.769 81.1325 172.799 81.2799 172.856 81.4174C172.913 81.555 172.997 81.6799 173.103 81.7851C173.209 81.8904 173.335 81.9738 173.473 82.0306C173.611 82.0875 173.76 82.1166 173.909 82.1164H197Z" fill="#E4E4E4"/>
<path d="M197 75.4454C197.302 75.4449 197.591 75.3253 197.804 75.1131C198.017 74.9008 198.136 74.6131 198.136 74.3132C198.136 74.0132 198.017 73.7256 197.804 73.5133C197.591 73.301 197.302 73.1815 197 73.1809H173.91C173.761 73.1806 173.612 73.2096 173.474 73.2663C173.336 73.323 173.21 73.4063 173.104 73.5114C172.998 73.6166 172.914 73.7414 172.857 73.8789C172.799 74.0164 172.77 74.1638 172.77 74.3126C172.769 74.4615 172.799 74.6089 172.856 74.7464C172.913 74.884 172.997 75.0089 173.103 75.1141C173.209 75.2193 173.335 75.3028 173.473 75.3596C173.611 75.4165 173.76 75.4456 173.909 75.4454H197Z" fill="#E4E4E4"/>
<path d="M185.456 54.288C186.873 54.288 188.258 54.706 189.436 55.4891C190.614 56.2722 191.533 57.3853 192.075 58.6876C192.617 59.9899 192.759 61.4229 192.483 62.8054C192.206 64.1879 191.524 65.4578 190.522 66.4546C189.52 67.4513 188.243 68.1301 186.853 68.4051C185.464 68.6801 184.023 68.539 182.714 67.9995C181.405 67.4601 180.286 66.5466 179.498 65.3746C178.711 64.2025 178.291 62.8246 178.291 61.415C178.293 59.5255 179.049 57.7139 180.392 56.3778C181.735 55.0417 183.556 54.2901 185.456 54.288Z" fill="#FFCD11"/>
<path d="M127.513 117.317C129.061 117.317 130.316 116.069 130.316 114.529C130.316 112.989 129.061 111.74 127.513 111.74C125.965 111.74 124.71 112.989 124.71 114.529C124.71 116.069 125.965 117.317 127.513 117.317Z" fill="#E4E4E4"/>
<path d="M172.554 112.359C172.804 112.358 173.052 112.407 173.283 112.502C173.514 112.597 173.724 112.736 173.9 112.912C174.077 113.087 174.217 113.296 174.313 113.526C174.409 113.755 174.458 114.001 174.458 114.25C174.458 114.498 174.409 114.745 174.313 114.974C174.217 115.204 174.077 115.412 173.9 115.588C173.724 115.764 173.514 115.903 173.283 115.998C173.052 116.093 172.804 116.141 172.554 116.141H143.072C142.822 116.141 142.574 116.093 142.343 115.998C142.112 115.903 141.903 115.764 141.726 115.588C141.549 115.412 141.409 115.204 141.313 114.974C141.217 114.745 141.168 114.498 141.168 114.25C141.168 114.001 141.217 113.755 141.313 113.526C141.409 113.296 141.549 113.087 141.726 112.912C141.903 112.736 142.112 112.597 142.343 112.502C142.574 112.407 142.822 112.358 143.072 112.359H172.554ZM172.554 111.896H143.072C142.444 111.896 141.842 112.144 141.398 112.585C140.954 113.027 140.705 113.626 140.705 114.25C140.705 114.874 140.954 115.473 141.398 115.915C141.842 116.356 142.444 116.604 143.072 116.604H172.554C173.182 116.604 173.784 116.356 174.228 115.915C174.672 115.473 174.921 114.874 174.921 114.25C174.921 113.626 174.672 113.027 174.228 112.585C173.784 112.144 173.182 111.896 172.554 111.896Z" fill="#E4E4E4"/>
<path d="M160.92 116.604H138.726C138.098 116.604 137.496 116.356 137.053 115.915C136.609 115.473 136.359 114.874 136.359 114.25C136.359 113.626 136.609 113.027 137.053 112.585C137.496 112.144 138.098 111.896 138.726 111.896H160.92C161.548 111.896 162.15 112.144 162.594 112.585C163.038 113.027 163.287 113.626 163.287 114.25C163.287 114.874 163.038 115.473 162.594 115.915C162.15 116.356 161.548 116.604 160.92 116.604Z" fill="#E4E4E4"/>
<path d="M127.513 128.896C129.061 128.896 130.316 127.648 130.316 126.108C130.316 124.568 129.061 123.319 127.513 123.319C125.965 123.319 124.71 124.568 124.71 126.108C124.71 127.648 125.965 128.896 127.513 128.896Z" fill="#E4E4E4"/>
<path d="M172.554 123.938C172.804 123.938 173.052 123.986 173.283 124.081C173.514 124.176 173.724 124.315 173.9 124.491C174.077 124.667 174.217 124.875 174.313 125.105C174.409 125.334 174.458 125.58 174.458 125.829C174.458 126.078 174.409 126.324 174.313 126.553C174.217 126.783 174.077 126.992 173.9 127.167C173.724 127.343 173.514 127.482 173.283 127.577C173.052 127.672 172.804 127.721 172.554 127.72H143.072C142.822 127.721 142.574 127.672 142.343 127.577C142.112 127.482 141.903 127.343 141.726 127.167C141.549 126.992 141.409 126.783 141.313 126.553C141.217 126.324 141.168 126.078 141.168 125.829C141.168 125.58 141.217 125.334 141.313 125.105C141.409 124.875 141.549 124.667 141.726 124.491C141.903 124.315 142.112 124.176 142.343 124.081C142.574 123.986 142.822 123.938 143.072 123.938H172.554ZM172.554 123.475H143.072C142.444 123.475 141.842 123.723 141.398 124.164C140.954 124.606 140.705 125.205 140.705 125.829C140.705 126.453 140.954 127.052 141.398 127.494C141.842 127.935 142.444 128.183 143.072 128.183H172.554C173.182 128.183 173.784 127.935 174.228 127.494C174.672 127.052 174.921 126.453 174.921 125.829C174.921 125.205 174.672 124.606 174.228 124.164C173.784 123.723 173.182 123.475 172.554 123.475Z" fill="#E4E4E4"/>
<path d="M169.301 128.183H138.726C138.098 128.183 137.496 127.935 137.053 127.494C136.609 127.052 136.359 126.453 136.359 125.829C136.359 125.205 136.609 124.606 137.053 124.164C137.496 123.723 138.098 123.475 138.726 123.475H169.301C169.928 123.476 170.53 123.724 170.973 124.165C171.416 124.607 171.665 125.205 171.665 125.829C171.665 126.453 171.416 127.051 170.973 127.493C170.53 127.934 169.928 128.183 169.301 128.183Z" fill="#E4E4E4"/>
<path d="M127.513 140.476C129.061 140.476 130.316 139.227 130.316 137.687C130.316 136.147 129.061 134.899 127.513 134.899C125.965 134.899 124.71 136.147 124.71 137.687C124.71 139.227 125.965 140.476 127.513 140.476Z" fill="#E4E4E4"/>
<path d="M172.554 135.517C173.059 135.517 173.542 135.716 173.899 136.071C174.255 136.426 174.455 136.907 174.455 137.408C174.455 137.91 174.255 138.391 173.899 138.745C173.542 139.1 173.059 139.299 172.554 139.299H143.072C142.568 139.299 142.084 139.1 141.727 138.745C141.371 138.391 141.171 137.91 141.171 137.408C141.171 136.907 141.371 136.426 141.727 136.071C142.084 135.716 142.568 135.517 143.072 135.517H172.554ZM172.554 135.054H143.072C142.444 135.054 141.842 135.302 141.398 135.744C140.954 136.185 140.705 136.784 140.705 137.408C140.705 138.033 140.954 138.631 141.398 139.073C141.842 139.514 142.444 139.762 143.072 139.762H172.554C173.182 139.762 173.784 139.514 174.228 139.073C174.672 138.631 174.921 138.033 174.921 137.408C174.921 136.784 174.672 136.185 174.228 135.744C173.784 135.302 173.182 135.054 172.554 135.054Z" fill="#E4E4E4"/>
<path d="M172.659 139.762H138.726C138.098 139.762 137.496 139.514 137.053 139.073C136.609 138.631 136.359 138.033 136.359 137.408C136.359 136.784 136.609 136.185 137.053 135.744C137.496 135.302 138.098 135.054 138.726 135.054H172.659C173.286 135.054 173.888 135.302 174.332 135.744C174.776 136.185 175.025 136.784 175.025 137.408C175.025 138.033 174.776 138.631 174.332 139.073C173.888 139.514 173.286 139.762 172.659 139.762Z" fill="#E4E4E4"/>
<path d="M260.882 167.944C261.225 167.538 261.473 167.063 261.611 166.551C261.749 166.04 261.773 165.504 261.68 164.983C261.587 164.461 261.381 163.966 261.075 163.532C260.769 163.099 260.371 162.737 259.91 162.473L262.331 149.824L256.122 152.398L254.775 164.015C254.38 164.816 254.294 165.732 254.533 166.592C254.773 167.451 255.321 168.194 256.074 168.678C256.827 169.162 257.732 169.355 258.618 169.22C259.504 169.084 260.31 168.631 260.882 167.944Z" fill="#FFB7B7"/>
<path d="M291.84 245.561L286.583 245.561L284.082 225.389L291.842 225.389L291.84 245.561Z" fill="#FFB7B7"/>
<path d="M293.18 250.631L276.229 250.63V250.417C276.229 248.676 276.924 247.007 278.161 245.776C279.399 244.545 281.077 243.853 282.827 243.853H282.827L293.181 243.854L293.18 250.631Z" fill="#2F2E41"/>
<path d="M263.108 245.561L257.851 245.561L255.35 225.389L263.109 225.389L263.108 245.561Z" fill="#FFB7B7"/>
<path d="M263.163 250.631L246.211 250.63V250.417C246.211 248.676 246.906 247.007 248.144 245.776C249.381 244.545 251.059 243.853 252.809 243.853H252.81L263.163 243.854L263.163 250.631Z" fill="#2F2E41"/>
<path d="M262.678 160.365L257.532 172.158L253.287 239.94L264.008 239.514L266.936 207.202L275.968 178.422L281.161 210.507L283.305 238.661L292.176 239.043L295.711 160.365H262.678Z" fill="#2F2E41"/>
<path d="M288.401 102.173L273.486 102.544L264.73 107.016L264.249 140.006L258.788 162.783C258.788 162.783 292.91 165.119 297.627 161.707L292.053 135.686L299.53 107.564L288.401 102.173Z" fill="#3F3D56"/>
<path d="M266.323 107.532L264.73 107.016C264.73 107.016 259.676 110.242 260.157 118.043C260.157 118.043 259.967 122.079 260.148 124.765C260.356 127.846 254.145 158.465 254.145 158.465H263.15L267.009 130.737L266.323 107.532Z" fill="#3F3D56"/>
<path d="M299.296 168.37C298.954 167.965 298.705 167.489 298.567 166.978C298.429 166.466 298.406 165.931 298.498 165.409C298.591 164.887 298.798 164.392 299.103 163.959C299.409 163.525 299.807 163.163 300.269 162.899L297.848 150.25L304.057 152.824L305.404 164.441C305.798 165.242 305.884 166.159 305.645 167.018C305.405 167.878 304.857 168.62 304.104 169.104C303.352 169.589 302.446 169.782 301.56 169.646C300.674 169.511 299.868 169.057 299.296 168.37Z" fill="#FFB7B7"/>
<path d="M297.285 107.958L298.878 107.443C298.878 107.443 303.932 110.669 303.451 118.469C303.451 118.469 303.641 122.505 303.46 125.192C303.252 128.273 306.033 158.891 306.033 158.891H297.027L293.168 131.164L297.285 107.958Z" fill="#3F3D56"/>
<path d="M292.062 88.3325C292.062 90.3666 291.456 92.355 290.319 94.0463C289.183 95.7377 287.569 97.0559 285.679 97.8343C283.79 98.6127 281.711 98.8164 279.706 98.4196C277.7 98.0227 275.858 97.0432 274.412 95.6049C272.966 94.1665 271.981 92.334 271.582 90.3389C271.184 88.3439 271.388 86.276 272.171 84.3967C272.953 82.5174 274.279 80.9112 275.979 79.7811C277.679 78.651 279.678 78.0478 281.723 78.0478C283.077 78.0444 284.419 78.3064 285.672 78.8189C286.924 79.3313 288.063 80.0842 289.023 81.0345C289.983 81.9847 290.746 83.1138 291.267 84.3572C291.788 85.6006 292.059 86.934 292.062 88.2812C292.062 88.2983 292.062 88.3154 292.062 88.3325Z" fill="#FFB7B7"/>
<path d="M271.418 74.5182C272.629 71.9275 274.973 72.4397 277.023 73.3179C279.619 72.7451 282.088 71.0303 284.885 72.0445C287.64 76.0304 296.89 74.8577 294.922 81.3469C294.919 82.9018 297.863 81.9967 297.349 84.5434C298.909 89.4444 291.72 98.7261 287.593 96.7715C288.614 94.9108 290.945 90.6845 287.409 90.2653C279.802 97.3062 286.624 76.8579 277.066 82.8045C273.901 85.6856 269.569 77.4 271.418 74.5182Z" fill="#2F2E41"/>
<path d="M337.609 251H0.391204C0.28745 251 0.187946 250.959 0.114581 250.886C0.0412157 250.813 0 250.714 0 250.611C0 250.508 0.0412157 250.409 0.114581 250.336C0.187946 250.263 0.28745 250.222 0.391204 250.222H337.609C337.713 250.222 337.812 250.263 337.885 250.336C337.959 250.409 338 250.508 338 250.611C338 250.714 337.959 250.813 337.885 250.886C337.812 250.959 337.713 251 337.609 251Z" fill="#CACACA"/>
</g>
<defs>
<clipPath id="clip0_14_434">
<rect width="338" height="251" fill="white"/>
</clipPath>
</defs>
</svg>
