<svg width="185" height="119" viewBox="0 0 185 119" fill="none" xmlns="http://www.w3.org/2000/svg">
<g clip-path="url(#clip0_12_1026)">
<path d="M172.808 118.566C170.412 116.957 169.205 113.896 169.157 111.002C169.141 110.032 169.385 108.907 170.251 108.475C170.499 108.352 170.776 108.299 171.052 108.324C171.328 108.348 171.591 108.448 171.814 108.614C172.036 108.779 172.209 109.002 172.313 109.26C172.417 109.517 172.448 109.798 172.403 110.073C172.724 109.129 173.141 108.22 173.647 107.361C174.075 106.634 174.676 105.878 175.515 105.808C176.488 105.728 177.301 106.677 177.439 107.647C177.577 108.617 177.225 109.582 176.879 110.498C176.977 110.083 177.177 109.699 177.46 109.382C177.744 109.064 178.102 108.823 178.503 108.681C178.903 108.538 179.333 108.499 179.753 108.566C180.172 108.633 180.568 108.805 180.904 109.066C181.856 109.803 182.17 111.16 181.93 112.342C181.691 113.524 180.988 114.558 180.21 115.479C179.299 116.557 178.243 117.543 176.979 118.17C175.716 118.796 174.221 119.036 172.877 118.611L172.808 118.566Z" fill="#F2F2F2"/>
<path d="M140.026 79.8152C140.356 79.6504 140.646 79.4151 140.876 79.1258C141.105 78.8365 141.268 78.5003 141.354 78.1407C141.44 77.7812 141.447 77.4071 141.373 77.0448C141.299 76.6826 141.147 76.3409 140.928 76.044L146.8 47.4302L141.32 47.3577L137.242 75.6085C136.769 76.0117 136.46 76.5748 136.374 77.1912C136.287 77.8077 136.429 78.4345 136.772 78.953C137.116 79.4716 137.636 79.8457 138.236 80.0046C138.836 80.1635 139.473 80.0961 140.026 79.8152Z" fill="#FFB8B8"/>
<path d="M166.719 78.3293C166.988 78.0768 167.199 77.7682 167.336 77.4252C167.474 77.0821 167.534 76.713 167.514 76.3438C167.494 75.9746 167.394 75.6143 167.22 75.2883C167.046 74.9623 166.803 74.6786 166.508 74.457L163.986 45.3524L158.714 46.855L162.852 75.0969C162.514 75.6189 162.379 76.2471 162.471 76.8626C162.564 77.4781 162.878 78.0382 163.355 78.4366C163.832 78.835 164.437 79.0442 165.057 79.0244C165.677 79.0046 166.268 78.7573 166.719 78.3293Z" fill="#FFB8B8"/>
<path d="M149.808 115.867L146.932 115.867L145.563 104.734L149.808 104.734L149.808 115.867Z" fill="#FFB8B8"/>
<path d="M144.878 115.042H150.424V118.547H141.385C141.385 117.617 141.753 116.726 142.408 116.069C143.063 115.411 143.951 115.042 144.878 115.042Z" fill="#2F2E41"/>
<path d="M162.71 115.867L159.834 115.867L158.466 104.734L162.711 104.734L162.71 115.867Z" fill="#FFB8B8"/>
<path d="M157.78 115.042H163.327V118.547H154.288C154.288 117.617 154.656 116.726 155.31 116.069C155.965 115.411 156.854 115.042 157.78 115.042Z" fill="#2F2E41"/>
<path d="M150.553 36.3248C153.735 36.3248 156.315 33.736 156.315 30.5425C156.315 27.349 153.735 24.7601 150.553 24.7601C147.371 24.7601 144.791 27.349 144.791 30.5425C144.791 33.736 147.371 36.3248 150.553 36.3248Z" fill="#FFB8B8"/>
<path d="M158.653 108.842C158.419 108.841 158.192 108.759 158.011 108.609C157.83 108.459 157.706 108.252 157.661 108.021L153.765 87.7961C153.73 87.6109 153.629 87.4447 153.482 87.3276C153.335 87.2104 153.15 87.1502 152.962 87.1578C152.775 87.1654 152.596 87.2403 152.458 87.3689C152.321 87.4975 152.234 87.6713 152.213 87.8588L150.032 107.559C150.006 107.799 149.895 108.022 149.72 108.188C149.544 108.353 149.314 108.449 149.074 108.459L145.802 108.608C145.669 108.616 145.536 108.596 145.411 108.55C145.286 108.504 145.171 108.434 145.074 108.343C144.975 108.253 144.896 108.144 144.84 108.023C144.784 107.902 144.752 107.771 144.747 107.638L143.493 77.2067C143.486 77.0531 143.514 76.8999 143.576 76.7589C143.637 76.618 143.73 76.493 143.846 76.3935L144.572 75.7724C144.755 75.616 144.987 75.53 145.227 75.5299H162.183C162.451 75.5302 162.708 75.6371 162.897 75.8272C163.087 76.0173 163.193 76.275 163.194 76.5438V107.674C163.194 107.936 163.094 108.187 162.914 108.376C162.734 108.565 162.488 108.676 162.227 108.687L158.696 108.842C158.682 108.842 158.668 108.842 158.653 108.842Z" fill="#2F2E41"/>
<path d="M149.969 79.9574C147.228 79.9577 144.811 79.2246 143.591 77.0866C143.489 76.9104 143.441 76.7079 143.454 76.5046L144.987 52.9909C144.999 52.8008 144.942 52.6126 144.827 52.4611L140.526 46.8019C140.446 46.6958 140.387 46.5748 140.353 46.4458C140.319 46.3169 140.311 46.1824 140.329 46.0503C140.347 45.9181 140.39 45.7908 140.457 45.6756C140.524 45.5604 140.614 45.4597 140.72 45.3792L147.171 40.4739C147.307 40.3706 147.405 40.2261 147.452 40.062L147.64 39.402C147.698 39.1964 147.82 39.0145 147.988 38.8825C148.155 38.7506 148.36 38.6752 148.573 38.6673L153.307 38.4845C153.465 38.4791 153.622 38.5107 153.765 38.5766C153.909 38.6426 154.036 38.7411 154.135 38.8644L154.639 39.4964C154.703 39.577 154.782 39.6443 154.872 39.6942L162.79 44.085C162.946 44.1719 163.076 44.2988 163.168 44.4527C163.26 44.6067 163.309 44.7823 163.311 44.9616L163.311 44.9756L163.308 44.9891C161.462 52.7117 161.566 62.4729 163.635 75.7088C163.64 75.9106 163.586 76.1095 163.478 76.2799C163.37 76.4504 163.214 76.5846 163.029 76.6654C161.316 77.4102 155.078 79.9574 149.969 79.9574Z" fill="#2D3192"/>
<path d="M145.148 55.703H139.786C139.648 55.7032 139.512 55.6752 139.386 55.6207C139.259 55.5661 139.145 55.4863 139.051 55.3859C138.957 55.2856 138.883 55.1669 138.836 55.0372C138.789 54.9075 138.769 54.7695 138.777 54.6317C138.857 53.2608 139.014 50.6535 139.172 48.5973C139.399 45.6384 142.288 44.1821 142.317 44.1676L142.373 44.1398L144.324 45.3823L146.139 54.4905C146.168 54.6376 146.164 54.7893 146.128 54.9348C146.092 55.0803 146.024 55.216 145.929 55.332C145.835 55.4479 145.715 55.5414 145.58 55.6056C145.445 55.6697 145.298 55.703 145.148 55.703Z" fill="#2D3192"/>
<path d="M159.842 55.2007C159.7 55.1998 159.561 55.1691 159.432 55.1107C159.303 55.0522 159.187 54.9672 159.093 54.8613C158.999 54.7553 158.928 54.6307 158.885 54.4955C158.842 54.3603 158.827 54.2175 158.842 54.0763L159.832 44.9394L161.744 43.5341L161.787 43.5389C161.808 43.5413 163.845 43.7965 164.757 46.0857C165.407 47.7159 166.399 50.7287 166.933 52.3795C166.976 52.5122 166.991 52.6523 166.977 52.7911C166.963 52.9299 166.921 53.0643 166.854 53.186C166.786 53.3078 166.693 53.4141 166.583 53.4984C166.472 53.5827 166.345 53.6431 166.21 53.6759L160.085 55.171C160.006 55.1907 159.924 55.2006 159.842 55.2007Z" fill="#2D3192"/>
<path d="M150.684 36.3651C151.916 34.4085 150.378 29.0224 147.025 28.8819C146.251 28.8494 145.954 27.7192 145.691 26.988C145.557 26.5641 145.522 26.115 145.587 25.6752C145.653 25.2354 145.817 24.8164 146.069 24.4503C146.581 23.7207 147.286 23.1492 148.104 22.8003C149.025 22.3759 150.025 22.1552 151.038 22.1532C152.052 22.1511 153.053 22.3678 153.975 22.7885C154.898 23.2092 155.719 23.8241 156.383 24.5914C157.048 25.3587 157.54 26.2605 157.827 27.2356C158.113 28.2107 158.188 29.2362 158.045 30.2427C157.901 31.2491 157.544 32.2129 156.997 33.0685C156.45 33.9242 155.726 34.6518 154.874 35.2019C154.022 35.7519 153.062 36.1117 152.06 36.2566L150.684 36.3651Z" fill="#2F2E41"/>
<path d="M115.888 0H1.64214C1.20676 0.000484803 0.789359 0.174269 0.481503 0.483222C0.173647 0.792175 0.000483082 1.21106 0 1.64799V79.3389C0.000483702 79.7758 0.173647 80.1947 0.481503 80.5037C0.789359 80.8126 1.20676 80.9864 1.64214 80.9869H115.888C116.323 80.9864 116.741 80.8126 117.049 80.5037C117.356 80.1947 117.53 79.7758 117.53 79.3389V1.64799C117.53 1.21106 117.356 0.792175 117.049 0.483222C116.741 0.174269 116.323 0.000484803 115.888 0ZM117.061 79.3389C117.061 79.651 116.937 79.9504 116.717 80.1711C116.497 80.3918 116.199 80.5159 115.888 80.516H1.64214C1.33109 80.5159 1.03281 80.3918 0.812868 80.1711C0.592923 79.9504 0.469306 79.651 0.469182 79.3389V1.64799C0.469306 1.33583 0.592923 1.0365 0.812868 0.815768C1.03281 0.595039 1.33109 0.470979 1.64214 0.470854H115.888C116.199 0.470979 116.497 0.595039 116.717 0.815768C116.937 1.0365 117.061 1.33583 117.061 1.64799V79.3389Z" fill="#3F3D56"/>
<path d="M117.295 6.60138H0.234375V7.07223H117.295V6.60138Z" fill="#3F3D56"/>
<path d="M4.22249 4.94396C4.99985 4.94396 5.63003 4.31153 5.63003 3.5314C5.63003 2.75126 4.99985 2.11884 4.22249 2.11884C3.44512 2.11884 2.81494 2.75126 2.81494 3.5314C2.81494 4.31153 3.44512 4.94396 4.22249 4.94396Z" fill="#3F3D56"/>
<path d="M8.26936 4.94396C9.04673 4.94396 9.67691 4.31153 9.67691 3.5314C9.67691 2.75126 9.04673 2.11884 8.26936 2.11884C7.492 2.11884 6.86182 2.75126 6.86182 3.5314C6.86182 4.31153 7.492 4.94396 8.26936 4.94396Z" fill="#3F3D56"/>
<path d="M12.3162 4.94396C13.0936 4.94396 13.7238 4.31153 13.7238 3.5314C13.7238 2.75126 13.0936 2.11884 12.3162 2.11884C11.5389 2.11884 10.9087 2.75126 10.9087 3.5314C10.9087 4.31153 11.5389 4.94396 12.3162 4.94396Z" fill="#3F3D56"/>
<path d="M94.7344 22.7103H22.0112C21.0468 22.7103 20.1219 22.3259 19.44 21.6415C18.7581 20.9572 18.375 20.029 18.375 19.0612C18.375 18.0934 18.7581 17.1653 19.44 16.4809C20.1219 15.7966 21.0468 15.4121 22.0112 15.4121H94.7344C95.6988 15.4121 96.6236 15.7966 97.3055 16.4809C97.9875 17.1653 98.3706 18.0934 98.3706 19.0612C98.3706 20.029 97.9875 20.9572 97.3055 21.6415C96.6236 22.3259 95.6988 22.7103 94.7344 22.7103ZM22.0112 15.883C21.1712 15.883 20.3657 16.2178 19.7718 16.8139C19.1778 17.4099 18.8442 18.2183 18.8442 19.0612C18.8442 19.9042 19.1778 20.7126 19.7718 21.3086C20.3657 21.9046 21.1712 22.2395 22.0112 22.2395H94.7344C95.5743 22.2395 96.3799 21.9046 96.9738 21.3086C97.5677 20.7126 97.9014 19.9042 97.9014 19.0612C97.9014 18.2183 97.5677 17.4099 96.9738 16.8139C96.3799 16.2178 95.5743 15.883 94.7344 15.883H22.0112Z" fill="#3F3D56"/>
<path d="M40.778 41.3091H26.7026C25.7382 41.3091 24.8133 40.9246 24.1314 40.2403C23.4495 39.556 23.0664 38.6278 23.0664 37.66C23.0664 36.6922 23.4495 35.764 24.1314 35.0797C24.8133 34.3953 25.7382 34.0109 26.7026 34.0109H40.778C41.7424 34.0109 42.6673 34.3953 43.3492 35.0797C44.0311 35.764 44.4142 36.6922 44.4142 37.66C44.4142 38.6278 44.0311 39.556 43.3492 40.2403C42.6673 40.9246 41.7424 41.3091 40.778 41.3091ZM26.7026 34.4817C25.8626 34.4817 25.0571 34.8166 24.4632 35.4126C23.8693 36.0087 23.5356 36.8171 23.5356 37.66C23.5356 38.5029 23.8693 39.3113 24.4632 39.9074C25.0571 40.5034 25.8626 40.8382 26.7026 40.8382H40.778C41.618 40.8382 42.4235 40.5034 43.0174 39.9074C43.6113 39.3113 43.945 38.5029 43.945 37.66C43.945 36.8171 43.6113 36.0087 43.0174 35.4126C42.4235 34.8166 41.618 34.4817 40.778 34.4817H26.7026Z" fill="#3F3D56"/>
<path d="M40.778 53.5513H26.7026C25.7382 53.5513 24.8133 53.1668 24.1314 52.4825C23.4495 51.7981 23.0664 50.87 23.0664 49.9022C23.0664 48.9344 23.4495 48.0062 24.1314 47.3219C24.8133 46.6375 25.7382 46.2531 26.7026 46.2531H40.778C41.7424 46.2531 42.6673 46.6375 43.3492 47.3219C44.0311 48.0062 44.4142 48.9344 44.4142 49.9022C44.4142 50.87 44.0311 51.7981 43.3492 52.4825C42.6673 53.1668 41.7424 53.5513 40.778 53.5513ZM26.7026 46.7239C25.8626 46.7239 25.0571 47.0588 24.4632 47.6548C23.8693 48.2508 23.5356 49.0592 23.5356 49.9022C23.5356 50.7451 23.8693 51.5535 24.4632 52.1495C25.0571 52.7456 25.8626 53.0804 26.7026 53.0804H40.778C41.618 53.0804 42.4235 52.7456 43.0174 52.1495C43.6113 51.5535 43.945 50.7451 43.945 49.9022C43.945 49.0592 43.6113 48.2508 43.0174 47.6548C42.4235 47.0588 41.618 46.7239 40.778 46.7239H26.7026Z" fill="#3F3D56"/>
<path d="M40.778 65.7935H26.7026C25.7382 65.7935 24.8133 65.409 24.1314 64.7247C23.4495 64.0403 23.0664 63.1122 23.0664 62.1444C23.0664 61.1766 23.4495 60.2484 24.1314 59.564C24.8133 58.8797 25.7382 58.4952 26.7026 58.4952H40.778C41.7424 58.4952 42.6673 58.8797 43.3492 59.564C44.0311 60.2484 44.4142 61.1766 44.4142 62.1444C44.4142 63.1122 44.0311 64.0403 43.3492 64.7247C42.6673 65.409 41.7424 65.7935 40.778 65.7935ZM26.7026 58.9661C25.8626 58.9661 25.0571 59.3009 24.4632 59.897C23.8693 60.493 23.5356 61.3014 23.5356 62.1444C23.5356 62.9873 23.8693 63.7957 24.4632 64.3917C25.0571 64.9878 25.8626 65.3226 26.7026 65.3226H40.778C41.618 65.3226 42.4235 64.9878 43.0174 64.3917C43.6113 63.7957 43.945 62.9873 43.945 62.1444C43.945 61.3014 43.6113 60.493 43.0174 59.897C42.4235 59.3009 41.618 58.9661 40.778 58.9661H26.7026Z" fill="#3F3D56"/>
<path d="M42.8893 20.7092H23.1836C22.7481 20.7092 22.3304 20.5356 22.0225 20.2266C21.7145 19.9175 21.5415 19.4983 21.5415 19.0613C21.5415 18.6242 21.7145 18.205 22.0225 17.896C22.3304 17.5869 22.7481 17.4133 23.1836 17.4133H42.8893C43.3248 17.4133 43.7425 17.5869 44.0505 17.896C44.3584 18.205 44.5314 18.6242 44.5314 19.0613C44.5314 19.4983 44.3584 19.9175 44.0505 20.2266C43.7425 20.5356 43.3248 20.7092 42.8893 20.7092Z" fill="#2D3192"/>
<path d="M92.271 19.8852C91.9463 19.8852 91.6288 19.7886 91.3587 19.6075C91.0887 19.4264 90.8782 19.169 90.7539 18.8679C90.6296 18.5668 90.5971 18.2354 90.6605 17.9157C90.7238 17.596 90.8802 17.3024 91.1099 17.0719C91.3395 16.8414 91.6321 16.6845 91.9507 16.6209C92.2692 16.5573 92.5994 16.5899 92.8995 16.7147C93.1995 16.8394 93.456 17.0506 93.6364 17.3216C93.8169 17.5927 93.9132 17.9113 93.9132 18.2372C93.9127 18.6741 93.7395 19.093 93.4317 19.402C93.1238 19.7109 92.7064 19.8847 92.271 19.8852ZM92.271 17.0601C92.0391 17.0601 91.8123 17.1291 91.6194 17.2585C91.4265 17.3878 91.2762 17.5717 91.1874 17.7867C91.0986 18.0018 91.0754 18.2385 91.1206 18.4669C91.1659 18.6952 91.2776 18.905 91.4416 19.0696C91.6057 19.2342 91.8147 19.3463 92.0422 19.3917C92.2697 19.4372 92.5056 19.4138 92.7199 19.3248C92.9342 19.2357 93.1174 19.0848 93.2463 18.8912C93.3752 18.6976 93.444 18.47 93.444 18.2372C93.4436 17.9251 93.32 17.6259 93.1001 17.4053C92.8802 17.1846 92.582 17.0604 92.271 17.0601Z" fill="#3F3D56"/>
<path d="M94.8111 21.3761C94.7802 21.3761 94.7497 21.37 94.7213 21.3582C94.6928 21.3464 94.667 21.329 94.6452 21.3071L92.9969 19.6529C92.9752 19.631 92.9579 19.6051 92.9461 19.5765C92.9343 19.548 92.9282 19.5174 92.9282 19.4864C92.9282 19.4555 92.9343 19.4249 92.9461 19.3964C92.9579 19.3678 92.9752 19.3418 92.9969 19.32C93.0187 19.2981 93.0446 19.2808 93.073 19.269C93.1015 19.2571 93.132 19.251 93.1628 19.251C93.1936 19.251 93.2241 19.2571 93.2526 19.269C93.281 19.2808 93.3069 19.2981 93.3287 19.32L94.9769 20.9742C95.0097 21.0071 95.0321 21.0491 95.0411 21.0947C95.0502 21.1404 95.0455 21.1877 95.0278 21.2307C95.01 21.2737 94.9799 21.3105 94.9414 21.3364C94.9028 21.3622 94.8574 21.3761 94.8111 21.3761Z" fill="#3F3D56"/>
<path d="M91.3326 39.8965H83.3565C82.7655 39.8965 82.1986 39.6609 81.7807 39.2414C81.3627 38.822 81.1279 38.2531 81.1279 37.66C81.1279 37.0668 81.3627 36.4979 81.7807 36.0785C82.1986 35.659 82.7655 35.4234 83.3565 35.4234H91.3326C91.9237 35.4234 92.4906 35.659 92.9085 36.0785C93.3265 36.4979 93.5613 37.0668 93.5613 37.66C93.5613 38.2531 93.3265 38.822 92.9085 39.2414C92.4906 39.6609 91.9237 39.8965 91.3326 39.8965Z" fill="#2D3192"/>
<path d="M91.3326 52.1388H83.3565C82.7655 52.1388 82.1986 51.9031 81.7807 51.4837C81.3627 51.0643 81.1279 50.4954 81.1279 49.9022C81.1279 49.309 81.3627 48.7402 81.7807 48.3207C82.1986 47.9013 82.7655 47.6656 83.3565 47.6656H91.3326C91.9237 47.6656 92.4906 47.9013 92.9085 48.3207C93.3265 48.7402 93.5613 49.309 93.5613 49.9022C93.5613 50.4954 93.3265 51.0643 92.9085 51.4837C92.4906 51.9031 91.9237 52.1388 91.3326 52.1388Z" fill="#2D3192"/>
<path d="M91.3326 64.3809H83.3565C82.7655 64.3809 82.1986 64.1453 81.7807 63.7259C81.3627 63.3064 81.1279 62.7376 81.1279 62.1444C81.1279 61.5512 81.3627 60.9823 81.7807 60.5629C82.1986 60.1435 82.7655 59.9078 83.3565 59.9078H91.3326C91.9237 59.9078 92.4906 60.1435 92.9085 60.5629C93.3265 60.9823 93.5613 61.5512 93.5613 62.1444C93.5613 62.7376 93.3265 63.3064 92.9085 63.7259C92.4906 64.1453 91.9237 64.3809 91.3326 64.3809Z" fill="#2D3192"/>
<path d="M184.765 119H126.587C126.524 119 126.465 118.975 126.421 118.931C126.377 118.887 126.352 118.827 126.352 118.765C126.352 118.702 126.377 118.642 126.421 118.598C126.465 118.554 126.524 118.529 126.587 118.529H184.765C184.827 118.529 184.887 118.554 184.931 118.598C184.975 118.642 185 118.702 185 118.765C185 118.827 184.975 118.887 184.931 118.931C184.887 118.975 184.827 119 184.765 119Z" fill="#3F3D56"/>
</g>
<defs>
<clipPath id="clip0_12_1026">
<rect width="185" height="119" fill="white"/>
</clipPath>
</defs>
</svg>
