<svg width="247" height="216" viewBox="0 0 247 216" fill="none" xmlns="http://www.w3.org/2000/svg">
<path d="M83.8564 97.1672C91.3403 97.1672 97.4072 91.0924 97.4072 83.5988C97.4072 76.1052 91.3403 70.0304 83.8564 70.0304C76.3725 70.0304 70.3057 76.1052 70.3057 83.5988C70.3057 91.0924 76.3725 97.1672 83.8564 97.1672Z" fill="#F2F2F2"/>
<path d="M42.0753 36.8262H135.436V41.9407H53.9937C49.2052 41.9407 44.4636 42.8851 40.0395 44.72C35.6155 46.5548 31.5957 49.2442 28.2097 52.6346C24.8237 56.025 22.1378 60.05 20.3053 64.4798C18.4728 68.9096 17.5297 73.6574 17.5297 78.4521V136.559H7.31395C6.86239 136.559 6.42933 136.38 6.11003 136.06C5.79072 135.74 5.61134 135.307 5.61133 134.854V73.3376C5.61132 68.5428 6.5545 63.795 8.38698 59.3652C10.2195 54.9355 12.9054 50.9105 16.2914 47.5201C19.6774 44.1297 23.6972 41.4403 28.1212 39.6054C32.5452 37.7705 37.2868 36.8262 42.0753 36.8262Z" fill="#F2F2F2"/>
<path d="M60.0332 214.03V136.34H82.7635V214.03C82.7629 214.553 82.5555 215.053 82.1867 215.422C81.818 215.792 81.318 215.999 80.7965 216H62.0002C61.4787 215.999 60.9788 215.792 60.61 215.422C60.2412 215.053 60.0338 214.553 60.0332 214.03Z" fill="#3F3D56"/>
<path d="M0.803711 134.809V71.6348C0.815051 61.5779 4.80995 51.9362 11.912 44.8249C19.014 37.7136 28.6431 33.7135 38.6869 33.7021H135V136.997H2.98932C2.40986 136.996 1.85434 136.766 1.4446 136.355C1.03486 135.945 0.804374 135.389 0.803711 134.809ZM134.126 34.5775H38.6869C28.8749 34.5887 19.468 38.4965 12.5299 45.4437C5.59175 52.3908 1.68905 61.81 1.67795 71.6348V134.809C1.67833 135.157 1.81662 135.49 2.06246 135.737C2.30831 135.983 2.64164 136.121 2.98932 136.122H134.126V34.5775Z" fill="#3F3D56"/>
<path d="M83.8562 90.6018C81.7702 90.5995 79.7702 89.7687 78.2952 88.2917C76.8201 86.8147 75.9904 84.8122 75.988 82.7234V26.2614C75.9876 25.9133 75.8494 25.5795 75.6035 25.3333C75.3577 25.0872 75.0243 24.9487 74.6767 24.9483H44.0782C43.4987 24.9477 42.9432 24.7169 42.5335 24.3066C42.1237 23.8963 41.8932 23.3401 41.8926 22.7599V2.18845C41.8932 1.60824 42.1237 1.05199 42.5335 0.641722C42.9432 0.231453 43.4987 0.000671871 44.0782 0H89.5388C90.1183 0.000663779 90.6738 0.231445 91.0835 0.641715C91.4932 1.05199 91.7237 1.60824 91.7244 2.18845V82.7234C91.7221 84.8122 90.8923 86.8147 89.4173 88.2917C87.9422 89.7687 85.9423 90.5995 83.8562 90.6018Z" fill="#FFCD11"/>
<path d="M138.496 32.8267C145.09 32.8129 151.42 35.4226 156.093 40.0817C160.765 44.7408 163.398 51.0678 163.412 57.6706V129.587H212.369C214.336 129.583 216.224 130.362 217.618 131.751C219.011 133.141 219.796 135.028 219.801 136.997H113.58V57.6706C113.594 51.0678 116.227 44.7408 120.899 40.0817C125.572 35.4226 131.902 32.8129 138.496 32.8267Z" fill="#3F3D56"/>
<path d="M132.518 73.7803L137.677 95.1203L238.6 70.6571L233.441 49.3171C233.378 49.0562 233.251 48.8152 233.071 48.6167C232.891 48.4181 232.664 48.2683 232.41 48.1812C232.223 48.1154 232.025 48.0855 231.827 48.0934L173.489 17.8482C173.147 17.6734 172.754 17.6267 172.381 17.7165C172.008 17.8063 171.679 18.0268 171.454 18.338L143.338 57.5961L132.739 72.4C132.72 72.4259 132.706 72.4557 132.7 72.4873C132.693 72.5189 132.693 72.5515 132.7 72.5831C132.484 72.9426 132.419 73.3727 132.518 73.7803Z" fill="white"/>
<path d="M132.701 72.5831C132.706 72.6108 132.716 72.6373 132.731 72.661C132.747 72.6848 132.766 72.7052 132.789 72.7213C132.817 72.7401 132.848 72.7531 132.88 72.7595C132.913 72.766 132.946 72.7657 132.979 72.7587C133.032 72.7447 133.078 72.7126 133.11 72.668L133.146 72.6175L133.698 71.8447L143.721 57.8543L171.828 18.6053C171.988 18.3828 172.223 18.2254 172.489 18.1614C172.756 18.0975 173.036 18.1313 173.28 18.2568L231.166 48.2677L231.685 48.5377C231.706 48.5465 231.728 48.554 231.75 48.5603C231.789 48.5531 231.829 48.5493 231.868 48.5489C231.923 48.5307 231.968 48.4923 231.995 48.4418C232.009 48.4151 232.018 48.3859 232.021 48.3559C232.023 48.3259 232.02 48.2956 232.011 48.2668C232.003 48.238 231.988 48.2112 231.969 48.188C231.95 48.1648 231.926 48.1456 231.899 48.1316L231.828 48.0934L173.49 17.8482C173.148 17.6734 172.755 17.6267 172.382 17.7165C172.009 17.8063 171.68 18.0268 171.454 18.338L143.339 57.5961L132.74 72.4C132.72 72.4259 132.707 72.4557 132.7 72.4873C132.694 72.5189 132.694 72.5515 132.701 72.5831Z" fill="#3F3D56"/>
<path d="M163.01 74.7591L165.257 75.0086L181.93 76.858L192.983 78.0833L193.636 78.1559L207.428 67.3692L207.956 66.956L211.214 64.4086L222.803 55.3456L222.873 54.709L226.995 17.4554C227.051 16.9425 226.902 16.4281 226.58 16.0251C226.258 15.6222 225.79 15.3634 225.278 15.3057L170.264 9.20355C169.751 9.14753 169.238 9.29706 168.835 9.6194C168.433 9.94173 168.174 10.4106 168.117 10.9233L165.21 37.2012L163.597 51.77L162.154 64.8038L161.486 70.8567L161.291 72.6099C161.235 73.1231 161.385 73.6375 161.707 74.0403C162.03 74.4431 162.498 74.7016 163.01 74.7591Z" fill="#E6E6E6"/>
<path d="M178.129 42.1048L201.959 44.7476L210.411 45.6846C210.784 45.7259 211.161 45.6933 211.522 45.5886C211.882 45.4838 212.219 45.309 212.512 45.0741C212.805 44.8392 213.049 44.5488 213.23 44.2194C213.411 43.8901 213.525 43.5283 213.566 43.1547C213.608 42.7811 213.575 42.403 213.471 42.042C213.366 41.681 213.191 41.3442 212.957 41.0507C212.722 40.7573 212.432 40.513 212.103 40.3318C211.774 40.1506 211.413 40.036 211.04 39.9946L200.529 38.829L178.76 36.4121C178.006 36.3287 177.25 36.5485 176.659 37.023C176.067 37.4975 175.687 38.188 175.603 38.9427C175.52 39.6973 175.739 40.4543 176.212 41.0473C176.686 41.6403 177.375 42.0206 178.129 42.1048Z" fill="white"/>
<path d="M176.772 52.6602C176.834 52.6712 176.895 52.6822 176.958 52.6882L204.621 55.7568L209.24 56.2702C209.994 56.3537 210.75 56.1339 211.342 55.6592C211.934 55.1845 212.313 54.4938 212.397 53.739C212.48 52.9841 212.26 52.227 211.786 51.6343C211.312 51.0415 210.622 50.6616 209.869 50.5781L203.19 49.8382L181.277 47.4069L177.589 46.9978C176.852 46.9154 176.111 47.1234 175.524 47.5778C174.937 48.0323 174.55 48.6975 174.443 49.4329C174.337 50.1682 174.521 50.9161 174.956 51.5184C175.39 52.1207 176.042 52.5301 176.772 52.6602Z" fill="white"/>
<path d="M173.641 62.0197C173.867 62.3965 174.178 62.716 174.548 62.9532C174.918 63.1905 175.337 63.3391 175.774 63.3876L187.112 64.645L207.306 66.8851L207.311 66.884L207.956 66.9561L211.214 64.4086C211.234 64.2151 211.234 64.0201 211.214 63.8265C211.146 63.1767 210.857 62.5698 210.397 62.1063C209.938 61.6428 209.333 61.3504 208.685 61.2775L205.88 60.9654L194.752 59.7324L186.745 58.8432L176.403 57.6955C175.873 57.6367 175.337 57.7276 174.856 57.9578C174.375 58.188 173.967 58.5484 173.68 58.9983C173.393 59.4481 173.237 59.9694 173.23 60.5033C173.223 61.0373 173.365 61.5625 173.641 62.0197Z" fill="white"/>
<path d="M189.567 29.2025L195.496 29.8601L198.115 30.1513L202.071 30.5897C202.825 30.6732 203.581 30.4534 204.173 29.9787C204.765 29.504 205.144 28.8132 205.228 28.0584C205.311 27.3036 205.092 26.5465 204.617 25.9537C204.143 25.3609 203.454 24.981 202.7 24.8975L190.198 23.512C189.445 23.4282 188.689 23.6475 188.097 24.1218C187.504 24.596 187.125 25.2864 187.041 26.041C186.957 26.7956 187.176 27.5527 187.65 28.1455C188.124 28.7384 188.813 29.1186 189.567 29.2025Z" fill="white"/>
<path d="M141.084 45.0522L148.312 74.9525L160.378 77.2496L171.538 79.3771L183.512 81.6585L187.339 82.3876C187.563 82.43 187.793 82.4241 188.014 82.3704C188.236 82.3167 188.444 82.2164 188.623 82.0761L191.693 79.6756L193.636 78.1559L207.429 67.3692L198.659 31.0962C198.572 30.7354 198.384 30.4072 198.115 30.1512C197.88 29.9247 197.591 29.7612 197.276 29.6757C196.961 29.5903 196.629 29.5856 196.312 29.6622L142.516 42.7022C142.015 42.824 141.583 43.1398 141.314 43.5805C141.046 44.0211 140.963 44.5504 141.084 45.0522Z" fill="#FFCD11"/>
<path d="M157.659 68.8389C157.838 69.5765 158.302 70.2128 158.949 70.6082C159.596 71.0035 160.373 71.1256 161.11 70.9477L192.677 63.2962C193.413 63.1166 194.048 62.6519 194.443 62.0041C194.838 61.3563 194.96 60.5781 194.783 59.8403C194.775 59.8037 194.764 59.7676 194.752 59.7323C194.55 59.0209 194.082 58.4152 193.444 58.0423C192.806 57.6693 192.049 57.5579 191.331 57.7315L159.765 65.383C159.028 65.5622 158.393 66.0268 157.998 66.6747C157.603 67.3227 157.481 68.101 157.659 68.8389Z" fill="white"/>
<path d="M160.377 77.2495L171.538 79.3771L195.179 73.6465C195.916 73.4679 196.552 73.0034 196.947 72.3553C197.342 71.7072 197.463 70.9286 197.285 70.1906C197.107 69.4527 196.643 68.816 195.996 68.4205C195.348 68.025 194.571 67.9032 193.834 68.0818L162.267 75.7334C161.608 75.892 161.026 76.282 160.629 76.8326C160.533 76.9642 160.449 77.1037 160.377 77.2495Z" fill="white"/>
<path d="M183.512 81.6586L187.338 82.3876C187.562 82.43 187.792 82.4242 188.014 82.3705C188.235 82.3168 188.443 82.2164 188.623 82.0762L191.692 79.6757L183.512 81.6586Z" fill="white"/>
<path d="M164.02 52.8059C164.199 53.5434 164.663 54.1798 165.31 54.5751C165.957 54.9705 166.734 55.0926 167.471 54.9146L179.697 51.951C180.434 51.7714 181.069 51.3068 181.464 50.659C181.859 50.0111 181.981 49.233 181.804 48.4951C181.708 48.0986 181.529 47.7274 181.277 47.4069C180.939 46.9737 180.483 46.6471 179.964 46.4661C179.446 46.2851 178.886 46.2574 178.352 46.3863L166.126 49.35C165.389 49.5287 164.753 49.9932 164.358 50.6412C163.963 51.2893 163.841 52.0679 164.02 52.8059Z" fill="white"/>
<path d="M171.536 79.377L183.513 81.6589L187.338 82.3883C187.562 82.4301 187.792 82.4241 188.013 82.3704C188.234 82.3167 188.442 82.2167 188.622 82.077L191.694 79.6759L190.616 79.9371L188.34 81.7146C188.212 81.8144 188.063 81.8859 187.905 81.9242C187.747 81.9625 187.583 81.9669 187.423 81.937L184.591 81.3976L172.614 79.1157L171.536 79.377ZM207.309 66.8857L207.426 67.368L207.957 66.9544L207.309 66.8857ZM171.536 79.377L183.513 81.6589L187.338 82.3883C187.562 82.4301 187.792 82.4241 188.013 82.3704C188.234 82.3167 188.442 82.2167 188.622 82.077L191.694 79.6759L190.616 79.9371L188.34 81.7146C188.212 81.8144 188.063 81.8859 187.905 81.9242C187.747 81.9625 187.583 81.9669 187.423 81.937L184.591 81.3976L172.614 79.1157L171.536 79.377ZM171.536 79.377L183.513 81.6589L187.338 82.3883C187.562 82.4301 187.792 82.4241 188.013 82.3704C188.234 82.3167 188.442 82.2167 188.622 82.077L191.694 79.6759L190.616 79.9371L188.34 81.7146C188.212 81.8144 188.063 81.8859 187.905 81.9242C187.747 81.9625 187.583 81.9669 187.423 81.937L184.591 81.3976L172.614 79.1157L171.536 79.377ZM132.518 73.7803L146.032 129.678C146.132 130.091 146.392 130.447 146.754 130.669C147.117 130.89 147.552 130.958 147.965 130.859L245.775 107.15C246.188 107.05 246.544 106.789 246.765 106.427C246.986 106.064 247.054 105.628 246.955 105.215L233.441 49.3171C233.378 49.0562 233.251 48.8153 233.071 48.6167C232.891 48.4181 232.664 48.2683 232.41 48.1813C232.223 48.1154 232.025 48.0856 231.827 48.0934C231.596 48.1001 231.37 48.1597 231.165 48.2677C231.071 48.3126 230.982 48.3679 230.9 48.4328L222.872 54.7091L211.214 63.8277L207.309 66.8824L207.309 66.8857L207.306 66.8865L192.983 78.0817L190.616 79.9371L188.34 81.7146C188.212 81.8144 188.063 81.8859 187.905 81.9242C187.747 81.9625 187.583 81.9669 187.423 81.937L184.591 81.3976L172.614 79.1157L160.628 76.8328L134.374 71.8302C134.15 71.7857 133.919 71.7907 133.697 71.8448C133.399 71.9178 133.127 72.0752 132.915 72.2982C132.834 72.3858 132.762 72.4812 132.7 72.5831C132.484 72.9426 132.419 73.3727 132.518 73.7803ZM171.536 79.377L183.513 81.6589L187.338 82.3883C187.562 82.4301 187.792 82.4241 188.013 82.3704C188.234 82.3167 188.442 82.2167 188.622 82.077L191.694 79.6759L190.616 79.9371L188.34 81.7146C188.212 81.8144 188.063 81.8859 187.905 81.9242C187.747 81.9625 187.583 81.9669 187.423 81.937L184.591 81.3976L172.614 79.1157L171.536 79.377ZM171.536 79.377L183.513 81.6589L187.338 82.3883C187.562 82.4301 187.792 82.4241 188.013 82.3704C188.234 82.3167 188.442 82.2167 188.622 82.077L191.694 79.6759L190.616 79.9371L188.34 81.7146C188.212 81.8144 188.063 81.8859 187.905 81.9242C187.747 81.9625 187.583 81.9669 187.423 81.937L184.591 81.3976L172.614 79.1157L171.536 79.377ZM171.536 79.377L183.513 81.6589L187.338 82.3883C187.562 82.4301 187.792 82.4241 188.013 82.3704C188.234 82.3167 188.442 82.2167 188.622 82.077L191.694 79.6759L190.616 79.9371L188.34 81.7146C188.212 81.8144 188.063 81.8859 187.905 81.9242C187.747 81.9625 187.583 81.9669 187.423 81.937L184.591 81.3976L172.614 79.1157L171.536 79.377Z" fill="white"/>
<path d="M171.536 79.3769L183.513 81.6589L187.338 82.3883C187.562 82.4301 187.792 82.424 188.013 82.3704C188.234 82.3167 188.442 82.2167 188.622 82.077L191.694 79.6759L190.616 79.9371L188.34 81.7146C188.212 81.8144 188.063 81.8859 187.905 81.9242C187.747 81.9625 187.583 81.9669 187.423 81.937L184.591 81.3976L172.614 79.1157L171.536 79.3769ZM207.309 66.8857L207.426 67.368L207.957 66.9544L207.309 66.8857ZM171.536 79.3769L183.513 81.6589L187.338 82.3883C187.562 82.4301 187.792 82.424 188.013 82.3704C188.234 82.3167 188.442 82.2167 188.622 82.077L191.694 79.6759L190.616 79.9371L188.34 81.7146C188.212 81.8144 188.063 81.8859 187.905 81.9242C187.747 81.9625 187.583 81.9669 187.423 81.937L184.591 81.3976L172.614 79.1157L171.536 79.3769ZM171.536 79.3769L183.513 81.6589L187.338 82.3883C187.562 82.4301 187.792 82.424 188.013 82.3704C188.234 82.3167 188.442 82.2167 188.622 82.077L191.694 79.6759L190.616 79.9371L188.34 81.7146C188.212 81.8144 188.063 81.8859 187.905 81.9242C187.747 81.9625 187.583 81.9669 187.423 81.937L184.591 81.3976L172.614 79.1157L171.536 79.3769ZM133.145 72.6176L133.205 72.6622C133.215 72.6459 133.232 72.6313 133.245 72.6142C133.378 72.4762 133.542 72.3732 133.724 72.3146C133.906 72.2559 134.1 72.2434 134.288 72.2781L160.377 77.2477L171.536 79.3769L183.513 81.6589L187.338 82.3883C187.562 82.4301 187.792 82.424 188.013 82.3704C188.234 82.3167 188.442 82.2167 188.622 82.077L191.694 79.6759L190.616 79.9371L188.34 81.7146C188.212 81.8144 188.063 81.8859 187.905 81.9242C187.747 81.9625 187.583 81.9669 187.423 81.937L184.591 81.3976L172.614 79.1157L160.628 76.8328L134.374 71.8301C134.15 71.7857 133.919 71.7907 133.697 71.8448L133.145 72.6176ZM132.518 73.7803L146.032 129.678C146.132 130.091 146.392 130.447 146.754 130.669C147.117 130.89 147.552 130.958 147.965 130.859L245.775 107.15C246.188 107.05 246.544 106.789 246.765 106.427C246.986 106.064 247.054 105.628 246.955 105.215L233.441 49.3171C233.378 49.0562 233.251 48.8153 233.071 48.6167C232.891 48.4181 232.664 48.2683 232.41 48.1813C232.223 48.1154 232.025 48.0856 231.827 48.0934C231.596 48.1001 231.37 48.1597 231.165 48.2677C231.071 48.3126 230.982 48.3679 230.9 48.4328L222.872 54.7091L211.214 63.8277L207.309 66.8824L207.309 66.8857L207.306 66.8865L192.983 78.0817L190.616 79.9371L188.34 81.7146C188.212 81.8144 188.063 81.8859 187.905 81.9242C187.747 81.9625 187.583 81.9669 187.423 81.937L184.591 81.3976L172.614 79.1157L160.628 76.8328L134.374 71.8301C134.15 71.7857 133.919 71.7907 133.697 71.8448C133.399 71.9178 133.127 72.0752 132.915 72.2982C132.834 72.3858 132.762 72.4812 132.7 72.5831C132.484 72.9426 132.419 73.3727 132.518 73.7803ZM132.963 73.6723C132.923 73.5075 132.921 73.3359 132.956 73.17C132.991 73.0041 133.062 72.8481 133.165 72.7135C133.174 72.6937 133.188 72.6762 133.205 72.6622C133.215 72.6459 133.232 72.6313 133.245 72.6142C133.378 72.4762 133.542 72.3732 133.724 72.3146C133.906 72.2559 134.1 72.2434 134.288 72.2781L160.377 77.2477L171.536 79.3769L183.513 81.6589L187.338 82.3883C187.562 82.4301 187.792 82.424 188.013 82.3704C188.234 82.3167 188.442 82.2167 188.622 82.077L191.694 79.6759L193.636 78.1562L207.426 67.368L207.957 66.9544L211.212 64.4082L222.804 55.3439L231.184 48.791C231.311 48.6915 231.459 48.6203 231.616 48.5822C231.659 48.5714 231.704 48.5641 231.749 48.5603C231.788 48.5531 231.828 48.5493 231.868 48.5489C232.002 48.5476 232.135 48.5694 232.261 48.6132C232.442 48.6762 232.604 48.7834 232.733 48.925C232.861 49.0667 232.953 49.2383 232.998 49.4243L246.512 105.322C246.548 105.468 246.554 105.62 246.531 105.769C246.508 105.918 246.456 106.061 246.377 106.19C246.299 106.318 246.196 106.43 246.074 106.519C245.952 106.608 245.814 106.672 245.668 106.707L147.858 130.416C147.563 130.487 147.251 130.438 146.992 130.279C146.734 130.12 146.548 129.865 146.477 129.57L132.963 73.6723ZM171.536 79.3769L183.513 81.6589L187.338 82.3883C187.562 82.4301 187.792 82.424 188.013 82.3704C188.234 82.3167 188.442 82.2167 188.622 82.077L191.694 79.6759L190.616 79.9371L188.34 81.7146C188.212 81.8144 188.063 81.8859 187.905 81.9242C187.747 81.9625 187.583 81.9669 187.423 81.937L184.591 81.3976L172.614 79.1157L171.536 79.3769ZM171.536 79.3769L183.513 81.6589L187.338 82.3883C187.562 82.4301 187.792 82.424 188.013 82.3704C188.234 82.3167 188.442 82.2167 188.622 82.077L191.694 79.6759L190.616 79.9371L188.34 81.7146C188.212 81.8144 188.063 81.8859 187.905 81.9242C187.747 81.9625 187.583 81.9669 187.423 81.937L184.591 81.3976L172.614 79.1157L171.536 79.3769ZM171.536 79.3769L183.513 81.6589L187.338 82.3883C187.562 82.4301 187.792 82.424 188.013 82.3704C188.234 82.3167 188.442 82.2167 188.622 82.077L191.694 79.6759L190.616 79.9371L188.34 81.7146C188.212 81.8144 188.063 81.8859 187.905 81.9242C187.747 81.9625 187.583 81.9669 187.423 81.937L184.591 81.3976L172.614 79.1157L171.536 79.3769Z" fill="#3F3D56"/>
<path d="M220.282 96.1681C220.062 95.2521 220.214 94.2861 220.704 93.4818C221.194 92.6776 221.982 92.1009 222.897 91.8782L235.242 88.8858C236.155 88.6678 237.118 88.8212 237.919 89.3124C238.719 89.8036 239.293 90.5925 239.514 91.5064C239.735 92.4204 239.585 93.3847 239.097 94.1882C238.61 94.9918 237.824 95.569 236.912 95.7934L224.567 98.7858C223.652 99.0064 222.687 98.8547 221.884 98.364C221.081 97.8732 220.505 97.0835 220.282 96.1681Z" fill="#FFCD11"/>
<path d="M83.8567 85.7872C85.5466 85.7872 86.9166 84.4155 86.9166 82.7234C86.9166 81.0313 85.5466 79.6595 83.8567 79.6595C82.1668 79.6595 80.7969 81.0313 80.7969 82.7234C80.7969 84.4155 82.1668 85.7872 83.8567 85.7872Z" fill="white"/>
</svg>
